<mxfile host="app.diagrams.net" agent="Mozilla/5.0 (Windows NT 10.0; Win64; x64) AppleWebKit/537.36 (KHTML, like Gecko) Chrome/130.0.0.0 Safari/537.36" version="24.8.6">
  <diagram id="R2lEEEUBdFMjLlhIrx00" name="Page-1">
    <mxGraphModel dx="1444" dy="825" grid="1" gridSize="10" guides="1" tooltips="1" connect="1" arrows="1" fold="1" page="1" pageScale="1" pageWidth="850" pageHeight="1100" math="0" shadow="0" extFonts="Permanent Marker^https://fonts.googleapis.com/css?family=Permanent+Marker">
      <root>
        <mxCell id="0" />
        <mxCell id="1" parent="0" />
        <mxCell id="C-vyLk0tnHw3VtMMgP7b-2" value="doctors" style="shape=table;startSize=30;container=1;collapsible=1;childLayout=tableLayout;fixedRows=1;rowLines=0;fontStyle=1;align=center;resizeLast=1;labelBackgroundColor=none;fillColor=#F694C1;strokeColor=#AF45ED;fontColor=#095C86;sketch=1;curveFitting=1;jiggle=2;" parent="1" vertex="1">
          <mxGeometry x="510" y="40" width="250" height="300" as="geometry" />
        </mxCell>
        <mxCell id="C-vyLk0tnHw3VtMMgP7b-3" value="" style="shape=partialRectangle;collapsible=0;dropTarget=0;pointerEvents=0;fillColor=none;points=[[0,0.5],[1,0.5]];portConstraint=eastwest;top=0;left=0;right=0;bottom=1;labelBackgroundColor=none;strokeColor=#AF45ED;fontColor=#095C86;sketch=1;curveFitting=1;jiggle=2;" parent="C-vyLk0tnHw3VtMMgP7b-2" vertex="1">
          <mxGeometry y="30" width="250" height="30" as="geometry" />
        </mxCell>
        <mxCell id="C-vyLk0tnHw3VtMMgP7b-4" value="PK" style="shape=partialRectangle;overflow=hidden;connectable=0;fillColor=none;top=0;left=0;bottom=0;right=0;fontStyle=1;labelBackgroundColor=none;strokeColor=#AF45ED;fontColor=#095C86;sketch=1;curveFitting=1;jiggle=2;" parent="C-vyLk0tnHw3VtMMgP7b-3" vertex="1">
          <mxGeometry width="30" height="30" as="geometry">
            <mxRectangle width="30" height="30" as="alternateBounds" />
          </mxGeometry>
        </mxCell>
        <mxCell id="C-vyLk0tnHw3VtMMgP7b-5" value="doctors id int NOT NULL" style="shape=partialRectangle;overflow=hidden;connectable=0;fillColor=none;top=0;left=0;bottom=0;right=0;align=left;spacingLeft=6;fontStyle=5;labelBackgroundColor=none;strokeColor=#AF45ED;fontColor=#095C86;sketch=1;curveFitting=1;jiggle=2;" parent="C-vyLk0tnHw3VtMMgP7b-3" vertex="1">
          <mxGeometry x="30" width="220" height="30" as="geometry">
            <mxRectangle width="220" height="30" as="alternateBounds" />
          </mxGeometry>
        </mxCell>
        <mxCell id="C-vyLk0tnHw3VtMMgP7b-6" value="" style="shape=partialRectangle;collapsible=0;dropTarget=0;pointerEvents=0;fillColor=none;points=[[0,0.5],[1,0.5]];portConstraint=eastwest;top=0;left=0;right=0;bottom=0;labelBackgroundColor=none;strokeColor=#AF45ED;fontColor=#095C86;sketch=1;curveFitting=1;jiggle=2;" parent="C-vyLk0tnHw3VtMMgP7b-2" vertex="1">
          <mxGeometry y="60" width="250" height="30" as="geometry" />
        </mxCell>
        <mxCell id="C-vyLk0tnHw3VtMMgP7b-7" value="FK1" style="shape=partialRectangle;overflow=hidden;connectable=0;fillColor=none;top=0;left=0;bottom=0;right=0;labelBackgroundColor=none;strokeColor=#AF45ED;fontColor=#095C86;sketch=1;curveFitting=1;jiggle=2;" parent="C-vyLk0tnHw3VtMMgP7b-6" vertex="1">
          <mxGeometry width="30" height="30" as="geometry">
            <mxRectangle width="30" height="30" as="alternateBounds" />
          </mxGeometry>
        </mxCell>
        <mxCell id="C-vyLk0tnHw3VtMMgP7b-8" value="user_id int" style="shape=partialRectangle;overflow=hidden;connectable=0;fillColor=none;top=0;left=0;bottom=0;right=0;align=left;spacingLeft=6;labelBackgroundColor=none;strokeColor=#AF45ED;fontColor=#095C86;sketch=1;curveFitting=1;jiggle=2;" parent="C-vyLk0tnHw3VtMMgP7b-6" vertex="1">
          <mxGeometry x="30" width="220" height="30" as="geometry">
            <mxRectangle width="220" height="30" as="alternateBounds" />
          </mxGeometry>
        </mxCell>
        <mxCell id="C-vyLk0tnHw3VtMMgP7b-9" value="" style="shape=partialRectangle;collapsible=0;dropTarget=0;pointerEvents=0;fillColor=none;points=[[0,0.5],[1,0.5]];portConstraint=eastwest;top=0;left=0;right=0;bottom=0;labelBackgroundColor=none;strokeColor=#AF45ED;fontColor=#095C86;sketch=1;curveFitting=1;jiggle=2;" parent="C-vyLk0tnHw3VtMMgP7b-2" vertex="1">
          <mxGeometry y="90" width="250" height="30" as="geometry" />
        </mxCell>
        <mxCell id="C-vyLk0tnHw3VtMMgP7b-10" value="" style="shape=partialRectangle;overflow=hidden;connectable=0;fillColor=none;top=0;left=0;bottom=0;right=0;labelBackgroundColor=none;strokeColor=#AF45ED;fontColor=#095C86;sketch=1;curveFitting=1;jiggle=2;" parent="C-vyLk0tnHw3VtMMgP7b-9" vertex="1">
          <mxGeometry width="30" height="30" as="geometry">
            <mxRectangle width="30" height="30" as="alternateBounds" />
          </mxGeometry>
        </mxCell>
        <mxCell id="C-vyLk0tnHw3VtMMgP7b-11" value="first_name varchar(100) NOT NULL" style="shape=partialRectangle;overflow=hidden;connectable=0;fillColor=none;top=0;left=0;bottom=0;right=0;align=left;spacingLeft=6;labelBackgroundColor=none;strokeColor=#AF45ED;fontColor=#095C86;sketch=1;curveFitting=1;jiggle=2;" parent="C-vyLk0tnHw3VtMMgP7b-9" vertex="1">
          <mxGeometry x="30" width="220" height="30" as="geometry">
            <mxRectangle width="220" height="30" as="alternateBounds" />
          </mxGeometry>
        </mxCell>
        <mxCell id="sSJZ3aIpv_1IfQXylRO--55" value="" style="shape=partialRectangle;collapsible=0;dropTarget=0;pointerEvents=0;fillColor=none;points=[[0,0.5],[1,0.5]];portConstraint=eastwest;top=0;left=0;right=0;bottom=0;labelBackgroundColor=none;strokeColor=#AF45ED;fontColor=#095C86;sketch=1;curveFitting=1;jiggle=2;" vertex="1" parent="C-vyLk0tnHw3VtMMgP7b-2">
          <mxGeometry y="120" width="250" height="30" as="geometry" />
        </mxCell>
        <mxCell id="sSJZ3aIpv_1IfQXylRO--56" value="" style="shape=partialRectangle;overflow=hidden;connectable=0;fillColor=none;top=0;left=0;bottom=0;right=0;labelBackgroundColor=none;strokeColor=#AF45ED;fontColor=#095C86;sketch=1;curveFitting=1;jiggle=2;" vertex="1" parent="sSJZ3aIpv_1IfQXylRO--55">
          <mxGeometry width="30" height="30" as="geometry">
            <mxRectangle width="30" height="30" as="alternateBounds" />
          </mxGeometry>
        </mxCell>
        <mxCell id="sSJZ3aIpv_1IfQXylRO--57" value="last_name varchar(100) NOT NULL" style="shape=partialRectangle;overflow=hidden;connectable=0;fillColor=none;top=0;left=0;bottom=0;right=0;align=left;spacingLeft=6;labelBackgroundColor=none;strokeColor=#AF45ED;fontColor=#095C86;sketch=1;curveFitting=1;jiggle=2;" vertex="1" parent="sSJZ3aIpv_1IfQXylRO--55">
          <mxGeometry x="30" width="220" height="30" as="geometry">
            <mxRectangle width="220" height="30" as="alternateBounds" />
          </mxGeometry>
        </mxCell>
        <mxCell id="sSJZ3aIpv_1IfQXylRO--58" value="" style="shape=partialRectangle;collapsible=0;dropTarget=0;pointerEvents=0;fillColor=none;points=[[0,0.5],[1,0.5]];portConstraint=eastwest;top=0;left=0;right=0;bottom=0;labelBackgroundColor=none;strokeColor=#AF45ED;fontColor=#095C86;sketch=1;curveFitting=1;jiggle=2;" vertex="1" parent="C-vyLk0tnHw3VtMMgP7b-2">
          <mxGeometry y="150" width="250" height="30" as="geometry" />
        </mxCell>
        <mxCell id="sSJZ3aIpv_1IfQXylRO--59" value="" style="shape=partialRectangle;overflow=hidden;connectable=0;fillColor=none;top=0;left=0;bottom=0;right=0;labelBackgroundColor=none;strokeColor=#AF45ED;fontColor=#095C86;sketch=1;curveFitting=1;jiggle=2;" vertex="1" parent="sSJZ3aIpv_1IfQXylRO--58">
          <mxGeometry width="30" height="30" as="geometry">
            <mxRectangle width="30" height="30" as="alternateBounds" />
          </mxGeometry>
        </mxCell>
        <mxCell id="sSJZ3aIpv_1IfQXylRO--60" value="specialization varchar(100)" style="shape=partialRectangle;overflow=hidden;connectable=0;fillColor=none;top=0;left=0;bottom=0;right=0;align=left;spacingLeft=6;labelBackgroundColor=none;strokeColor=#AF45ED;fontColor=#095C86;sketch=1;curveFitting=1;jiggle=2;" vertex="1" parent="sSJZ3aIpv_1IfQXylRO--58">
          <mxGeometry x="30" width="220" height="30" as="geometry">
            <mxRectangle width="220" height="30" as="alternateBounds" />
          </mxGeometry>
        </mxCell>
        <mxCell id="sSJZ3aIpv_1IfQXylRO--61" value="" style="shape=partialRectangle;collapsible=0;dropTarget=0;pointerEvents=0;fillColor=none;points=[[0,0.5],[1,0.5]];portConstraint=eastwest;top=0;left=0;right=0;bottom=0;labelBackgroundColor=none;strokeColor=#AF45ED;fontColor=#095C86;sketch=1;curveFitting=1;jiggle=2;" vertex="1" parent="C-vyLk0tnHw3VtMMgP7b-2">
          <mxGeometry y="180" width="250" height="30" as="geometry" />
        </mxCell>
        <mxCell id="sSJZ3aIpv_1IfQXylRO--62" value="" style="shape=partialRectangle;overflow=hidden;connectable=0;fillColor=none;top=0;left=0;bottom=0;right=0;labelBackgroundColor=none;strokeColor=#AF45ED;fontColor=#095C86;sketch=1;curveFitting=1;jiggle=2;" vertex="1" parent="sSJZ3aIpv_1IfQXylRO--61">
          <mxGeometry width="30" height="30" as="geometry">
            <mxRectangle width="30" height="30" as="alternateBounds" />
          </mxGeometry>
        </mxCell>
        <mxCell id="sSJZ3aIpv_1IfQXylRO--63" value="phone_number varchar(15)" style="shape=partialRectangle;overflow=hidden;connectable=0;fillColor=none;top=0;left=0;bottom=0;right=0;align=left;spacingLeft=6;labelBackgroundColor=none;strokeColor=#AF45ED;fontColor=#095C86;sketch=1;curveFitting=1;jiggle=2;" vertex="1" parent="sSJZ3aIpv_1IfQXylRO--61">
          <mxGeometry x="30" width="220" height="30" as="geometry">
            <mxRectangle width="220" height="30" as="alternateBounds" />
          </mxGeometry>
        </mxCell>
        <mxCell id="sSJZ3aIpv_1IfQXylRO--64" value="" style="shape=partialRectangle;collapsible=0;dropTarget=0;pointerEvents=0;fillColor=none;points=[[0,0.5],[1,0.5]];portConstraint=eastwest;top=0;left=0;right=0;bottom=0;labelBackgroundColor=none;strokeColor=#AF45ED;fontColor=#095C86;sketch=1;curveFitting=1;jiggle=2;" vertex="1" parent="C-vyLk0tnHw3VtMMgP7b-2">
          <mxGeometry y="210" width="250" height="30" as="geometry" />
        </mxCell>
        <mxCell id="sSJZ3aIpv_1IfQXylRO--65" value="" style="shape=partialRectangle;overflow=hidden;connectable=0;fillColor=none;top=0;left=0;bottom=0;right=0;labelBackgroundColor=none;strokeColor=#AF45ED;fontColor=#095C86;sketch=1;curveFitting=1;jiggle=2;" vertex="1" parent="sSJZ3aIpv_1IfQXylRO--64">
          <mxGeometry width="30" height="30" as="geometry">
            <mxRectangle width="30" height="30" as="alternateBounds" />
          </mxGeometry>
        </mxCell>
        <mxCell id="sSJZ3aIpv_1IfQXylRO--66" value="email varchar(150)" style="shape=partialRectangle;overflow=hidden;connectable=0;fillColor=none;top=0;left=0;bottom=0;right=0;align=left;spacingLeft=6;labelBackgroundColor=none;strokeColor=#AF45ED;fontColor=#095C86;sketch=1;curveFitting=1;jiggle=2;" vertex="1" parent="sSJZ3aIpv_1IfQXylRO--64">
          <mxGeometry x="30" width="220" height="30" as="geometry">
            <mxRectangle width="220" height="30" as="alternateBounds" />
          </mxGeometry>
        </mxCell>
        <mxCell id="sSJZ3aIpv_1IfQXylRO--67" value="" style="shape=partialRectangle;collapsible=0;dropTarget=0;pointerEvents=0;fillColor=none;points=[[0,0.5],[1,0.5]];portConstraint=eastwest;top=0;left=0;right=0;bottom=0;labelBackgroundColor=none;strokeColor=#AF45ED;fontColor=#095C86;sketch=1;curveFitting=1;jiggle=2;" vertex="1" parent="C-vyLk0tnHw3VtMMgP7b-2">
          <mxGeometry y="240" width="250" height="30" as="geometry" />
        </mxCell>
        <mxCell id="sSJZ3aIpv_1IfQXylRO--68" value="" style="shape=partialRectangle;overflow=hidden;connectable=0;fillColor=none;top=0;left=0;bottom=0;right=0;labelBackgroundColor=none;strokeColor=#AF45ED;fontColor=#095C86;sketch=1;curveFitting=1;jiggle=2;" vertex="1" parent="sSJZ3aIpv_1IfQXylRO--67">
          <mxGeometry width="30" height="30" as="geometry">
            <mxRectangle width="30" height="30" as="alternateBounds" />
          </mxGeometry>
        </mxCell>
        <mxCell id="sSJZ3aIpv_1IfQXylRO--69" value="license_number varchar(50)" style="shape=partialRectangle;overflow=hidden;connectable=0;fillColor=none;top=0;left=0;bottom=0;right=0;align=left;spacingLeft=6;labelBackgroundColor=none;strokeColor=#AF45ED;fontColor=#095C86;sketch=1;curveFitting=1;jiggle=2;" vertex="1" parent="sSJZ3aIpv_1IfQXylRO--67">
          <mxGeometry x="30" width="220" height="30" as="geometry">
            <mxRectangle width="220" height="30" as="alternateBounds" />
          </mxGeometry>
        </mxCell>
        <mxCell id="sSJZ3aIpv_1IfQXylRO--70" value="" style="shape=partialRectangle;collapsible=0;dropTarget=0;pointerEvents=0;fillColor=none;points=[[0,0.5],[1,0.5]];portConstraint=eastwest;top=0;left=0;right=0;bottom=0;labelBackgroundColor=none;strokeColor=#AF45ED;fontColor=#095C86;sketch=1;curveFitting=1;jiggle=2;" vertex="1" parent="C-vyLk0tnHw3VtMMgP7b-2">
          <mxGeometry y="270" width="250" height="30" as="geometry" />
        </mxCell>
        <mxCell id="sSJZ3aIpv_1IfQXylRO--71" value="" style="shape=partialRectangle;overflow=hidden;connectable=0;fillColor=none;top=0;left=0;bottom=0;right=0;labelBackgroundColor=none;strokeColor=#AF45ED;fontColor=#095C86;sketch=1;curveFitting=1;jiggle=2;" vertex="1" parent="sSJZ3aIpv_1IfQXylRO--70">
          <mxGeometry width="30" height="30" as="geometry">
            <mxRectangle width="30" height="30" as="alternateBounds" />
          </mxGeometry>
        </mxCell>
        <mxCell id="sSJZ3aIpv_1IfQXylRO--72" value="password varchar(255)" style="shape=partialRectangle;overflow=hidden;connectable=0;fillColor=none;top=0;left=0;bottom=0;right=0;align=left;spacingLeft=6;labelBackgroundColor=none;strokeColor=#AF45ED;fontColor=#095C86;sketch=1;curveFitting=1;jiggle=2;" vertex="1" parent="sSJZ3aIpv_1IfQXylRO--70">
          <mxGeometry x="30" width="220" height="30" as="geometry">
            <mxRectangle width="220" height="30" as="alternateBounds" />
          </mxGeometry>
        </mxCell>
        <mxCell id="C-vyLk0tnHw3VtMMgP7b-13" value="individuals" style="shape=table;startSize=30;container=1;collapsible=1;childLayout=tableLayout;fixedRows=1;rowLines=0;fontStyle=1;align=center;resizeLast=1;labelBackgroundColor=none;fillColor=#F694C1;strokeColor=#AF45ED;fontColor=#095C86;sketch=1;curveFitting=1;jiggle=2;" parent="1" vertex="1">
          <mxGeometry x="100" y="320" width="250" height="390" as="geometry" />
        </mxCell>
        <mxCell id="C-vyLk0tnHw3VtMMgP7b-14" value="" style="shape=partialRectangle;collapsible=0;dropTarget=0;pointerEvents=0;fillColor=none;points=[[0,0.5],[1,0.5]];portConstraint=eastwest;top=0;left=0;right=0;bottom=1;labelBackgroundColor=none;strokeColor=#AF45ED;fontColor=#095C86;sketch=1;curveFitting=1;jiggle=2;" parent="C-vyLk0tnHw3VtMMgP7b-13" vertex="1">
          <mxGeometry y="30" width="250" height="30" as="geometry" />
        </mxCell>
        <mxCell id="C-vyLk0tnHw3VtMMgP7b-15" value="PK" style="shape=partialRectangle;overflow=hidden;connectable=0;fillColor=none;top=0;left=0;bottom=0;right=0;fontStyle=1;labelBackgroundColor=none;strokeColor=#AF45ED;fontColor=#095C86;sketch=1;curveFitting=1;jiggle=2;" parent="C-vyLk0tnHw3VtMMgP7b-14" vertex="1">
          <mxGeometry width="30" height="30" as="geometry">
            <mxRectangle width="30" height="30" as="alternateBounds" />
          </mxGeometry>
        </mxCell>
        <mxCell id="C-vyLk0tnHw3VtMMgP7b-16" value="individuals id int NOT NULL" style="shape=partialRectangle;overflow=hidden;connectable=0;fillColor=none;top=0;left=0;bottom=0;right=0;align=left;spacingLeft=6;fontStyle=5;labelBackgroundColor=none;strokeColor=#AF45ED;fontColor=#095C86;sketch=1;curveFitting=1;jiggle=2;" parent="C-vyLk0tnHw3VtMMgP7b-14" vertex="1">
          <mxGeometry x="30" width="220" height="30" as="geometry">
            <mxRectangle width="220" height="30" as="alternateBounds" />
          </mxGeometry>
        </mxCell>
        <mxCell id="C-vyLk0tnHw3VtMMgP7b-17" value="" style="shape=partialRectangle;collapsible=0;dropTarget=0;pointerEvents=0;fillColor=none;points=[[0,0.5],[1,0.5]];portConstraint=eastwest;top=0;left=0;right=0;bottom=0;labelBackgroundColor=none;strokeColor=#AF45ED;fontColor=#095C86;sketch=1;curveFitting=1;jiggle=2;" parent="C-vyLk0tnHw3VtMMgP7b-13" vertex="1">
          <mxGeometry y="60" width="250" height="30" as="geometry" />
        </mxCell>
        <mxCell id="C-vyLk0tnHw3VtMMgP7b-18" value="FK1" style="shape=partialRectangle;overflow=hidden;connectable=0;fillColor=none;top=0;left=0;bottom=0;right=0;labelBackgroundColor=none;strokeColor=#AF45ED;fontColor=#095C86;sketch=1;curveFitting=1;jiggle=2;" parent="C-vyLk0tnHw3VtMMgP7b-17" vertex="1">
          <mxGeometry width="30" height="30" as="geometry">
            <mxRectangle width="30" height="30" as="alternateBounds" />
          </mxGeometry>
        </mxCell>
        <mxCell id="C-vyLk0tnHw3VtMMgP7b-19" value="user_id int" style="shape=partialRectangle;overflow=hidden;connectable=0;fillColor=none;top=0;left=0;bottom=0;right=0;align=left;spacingLeft=6;labelBackgroundColor=none;strokeColor=#AF45ED;fontColor=#095C86;sketch=1;curveFitting=1;jiggle=2;" parent="C-vyLk0tnHw3VtMMgP7b-17" vertex="1">
          <mxGeometry x="30" width="220" height="30" as="geometry">
            <mxRectangle width="220" height="30" as="alternateBounds" />
          </mxGeometry>
        </mxCell>
        <mxCell id="C-vyLk0tnHw3VtMMgP7b-20" value="" style="shape=partialRectangle;collapsible=0;dropTarget=0;pointerEvents=0;fillColor=none;points=[[0,0.5],[1,0.5]];portConstraint=eastwest;top=0;left=0;right=0;bottom=0;labelBackgroundColor=none;strokeColor=#AF45ED;fontColor=#095C86;sketch=1;curveFitting=1;jiggle=2;" parent="C-vyLk0tnHw3VtMMgP7b-13" vertex="1">
          <mxGeometry y="90" width="250" height="30" as="geometry" />
        </mxCell>
        <mxCell id="C-vyLk0tnHw3VtMMgP7b-21" value="" style="shape=partialRectangle;overflow=hidden;connectable=0;fillColor=none;top=0;left=0;bottom=0;right=0;labelBackgroundColor=none;strokeColor=#AF45ED;fontColor=#095C86;sketch=1;curveFitting=1;jiggle=2;" parent="C-vyLk0tnHw3VtMMgP7b-20" vertex="1">
          <mxGeometry width="30" height="30" as="geometry">
            <mxRectangle width="30" height="30" as="alternateBounds" />
          </mxGeometry>
        </mxCell>
        <mxCell id="C-vyLk0tnHw3VtMMgP7b-22" value="first_name varchar(100)" style="shape=partialRectangle;overflow=hidden;connectable=0;fillColor=none;top=0;left=0;bottom=0;right=0;align=left;spacingLeft=6;labelBackgroundColor=none;strokeColor=#AF45ED;fontColor=#095C86;sketch=1;curveFitting=1;jiggle=2;" parent="C-vyLk0tnHw3VtMMgP7b-20" vertex="1">
          <mxGeometry x="30" width="220" height="30" as="geometry">
            <mxRectangle width="220" height="30" as="alternateBounds" />
          </mxGeometry>
        </mxCell>
        <mxCell id="sSJZ3aIpv_1IfQXylRO--74" value="" style="shape=partialRectangle;collapsible=0;dropTarget=0;pointerEvents=0;fillColor=none;points=[[0,0.5],[1,0.5]];portConstraint=eastwest;top=0;left=0;right=0;bottom=0;labelBackgroundColor=none;strokeColor=#AF45ED;fontColor=#095C86;sketch=1;curveFitting=1;jiggle=2;" vertex="1" parent="C-vyLk0tnHw3VtMMgP7b-13">
          <mxGeometry y="120" width="250" height="30" as="geometry" />
        </mxCell>
        <mxCell id="sSJZ3aIpv_1IfQXylRO--75" value="" style="shape=partialRectangle;overflow=hidden;connectable=0;fillColor=none;top=0;left=0;bottom=0;right=0;labelBackgroundColor=none;strokeColor=#AF45ED;fontColor=#095C86;sketch=1;curveFitting=1;jiggle=2;" vertex="1" parent="sSJZ3aIpv_1IfQXylRO--74">
          <mxGeometry width="30" height="30" as="geometry">
            <mxRectangle width="30" height="30" as="alternateBounds" />
          </mxGeometry>
        </mxCell>
        <mxCell id="sSJZ3aIpv_1IfQXylRO--76" value="last_name varchar(100)" style="shape=partialRectangle;overflow=hidden;connectable=0;fillColor=none;top=0;left=0;bottom=0;right=0;align=left;spacingLeft=6;labelBackgroundColor=none;strokeColor=#AF45ED;fontColor=#095C86;sketch=1;curveFitting=1;jiggle=2;" vertex="1" parent="sSJZ3aIpv_1IfQXylRO--74">
          <mxGeometry x="30" width="220" height="30" as="geometry">
            <mxRectangle width="220" height="30" as="alternateBounds" />
          </mxGeometry>
        </mxCell>
        <mxCell id="sSJZ3aIpv_1IfQXylRO--77" value="" style="shape=partialRectangle;collapsible=0;dropTarget=0;pointerEvents=0;fillColor=none;points=[[0,0.5],[1,0.5]];portConstraint=eastwest;top=0;left=0;right=0;bottom=0;labelBackgroundColor=none;strokeColor=#AF45ED;fontColor=#095C86;sketch=1;curveFitting=1;jiggle=2;" vertex="1" parent="C-vyLk0tnHw3VtMMgP7b-13">
          <mxGeometry y="150" width="250" height="30" as="geometry" />
        </mxCell>
        <mxCell id="sSJZ3aIpv_1IfQXylRO--78" value="" style="shape=partialRectangle;overflow=hidden;connectable=0;fillColor=none;top=0;left=0;bottom=0;right=0;labelBackgroundColor=none;strokeColor=#AF45ED;fontColor=#095C86;sketch=1;curveFitting=1;jiggle=2;" vertex="1" parent="sSJZ3aIpv_1IfQXylRO--77">
          <mxGeometry width="30" height="30" as="geometry">
            <mxRectangle width="30" height="30" as="alternateBounds" />
          </mxGeometry>
        </mxCell>
        <mxCell id="sSJZ3aIpv_1IfQXylRO--79" value="age int" style="shape=partialRectangle;overflow=hidden;connectable=0;fillColor=none;top=0;left=0;bottom=0;right=0;align=left;spacingLeft=6;labelBackgroundColor=none;strokeColor=#AF45ED;fontColor=#095C86;sketch=1;curveFitting=1;jiggle=2;" vertex="1" parent="sSJZ3aIpv_1IfQXylRO--77">
          <mxGeometry x="30" width="220" height="30" as="geometry">
            <mxRectangle width="220" height="30" as="alternateBounds" />
          </mxGeometry>
        </mxCell>
        <mxCell id="sSJZ3aIpv_1IfQXylRO--80" value="" style="shape=partialRectangle;collapsible=0;dropTarget=0;pointerEvents=0;fillColor=none;points=[[0,0.5],[1,0.5]];portConstraint=eastwest;top=0;left=0;right=0;bottom=0;labelBackgroundColor=none;strokeColor=#AF45ED;fontColor=#095C86;sketch=1;curveFitting=1;jiggle=2;" vertex="1" parent="C-vyLk0tnHw3VtMMgP7b-13">
          <mxGeometry y="180" width="250" height="30" as="geometry" />
        </mxCell>
        <mxCell id="sSJZ3aIpv_1IfQXylRO--81" value="" style="shape=partialRectangle;overflow=hidden;connectable=0;fillColor=none;top=0;left=0;bottom=0;right=0;labelBackgroundColor=none;strokeColor=#AF45ED;fontColor=#095C86;sketch=1;curveFitting=1;jiggle=2;" vertex="1" parent="sSJZ3aIpv_1IfQXylRO--80">
          <mxGeometry width="30" height="30" as="geometry">
            <mxRectangle width="30" height="30" as="alternateBounds" />
          </mxGeometry>
        </mxCell>
        <mxCell id="sSJZ3aIpv_1IfQXylRO--82" value="gender enum(&#39;Male&#39;,&#39;Female&#39;,&#39;Other&#39;)" style="shape=partialRectangle;overflow=hidden;connectable=0;fillColor=none;top=0;left=0;bottom=0;right=0;align=left;spacingLeft=6;labelBackgroundColor=none;strokeColor=#AF45ED;fontColor=#095C86;sketch=1;curveFitting=1;jiggle=2;" vertex="1" parent="sSJZ3aIpv_1IfQXylRO--80">
          <mxGeometry x="30" width="220" height="30" as="geometry">
            <mxRectangle width="220" height="30" as="alternateBounds" />
          </mxGeometry>
        </mxCell>
        <mxCell id="sSJZ3aIpv_1IfQXylRO--83" value="" style="shape=partialRectangle;collapsible=0;dropTarget=0;pointerEvents=0;fillColor=none;points=[[0,0.5],[1,0.5]];portConstraint=eastwest;top=0;left=0;right=0;bottom=0;labelBackgroundColor=none;strokeColor=#AF45ED;fontColor=#095C86;sketch=1;curveFitting=1;jiggle=2;" vertex="1" parent="C-vyLk0tnHw3VtMMgP7b-13">
          <mxGeometry y="210" width="250" height="30" as="geometry" />
        </mxCell>
        <mxCell id="sSJZ3aIpv_1IfQXylRO--84" value="" style="shape=partialRectangle;overflow=hidden;connectable=0;fillColor=none;top=0;left=0;bottom=0;right=0;labelBackgroundColor=none;strokeColor=#AF45ED;fontColor=#095C86;sketch=1;curveFitting=1;jiggle=2;" vertex="1" parent="sSJZ3aIpv_1IfQXylRO--83">
          <mxGeometry width="30" height="30" as="geometry">
            <mxRectangle width="30" height="30" as="alternateBounds" />
          </mxGeometry>
        </mxCell>
        <mxCell id="sSJZ3aIpv_1IfQXylRO--85" value="email varchar(150)" style="shape=partialRectangle;overflow=hidden;connectable=0;fillColor=none;top=0;left=0;bottom=0;right=0;align=left;spacingLeft=6;labelBackgroundColor=none;strokeColor=#AF45ED;fontColor=#095C86;sketch=1;curveFitting=1;jiggle=2;" vertex="1" parent="sSJZ3aIpv_1IfQXylRO--83">
          <mxGeometry x="30" width="220" height="30" as="geometry">
            <mxRectangle width="220" height="30" as="alternateBounds" />
          </mxGeometry>
        </mxCell>
        <mxCell id="sSJZ3aIpv_1IfQXylRO--86" value="" style="shape=partialRectangle;collapsible=0;dropTarget=0;pointerEvents=0;fillColor=none;points=[[0,0.5],[1,0.5]];portConstraint=eastwest;top=0;left=0;right=0;bottom=0;labelBackgroundColor=none;strokeColor=#AF45ED;fontColor=#095C86;sketch=1;curveFitting=1;jiggle=2;" vertex="1" parent="C-vyLk0tnHw3VtMMgP7b-13">
          <mxGeometry y="240" width="250" height="30" as="geometry" />
        </mxCell>
        <mxCell id="sSJZ3aIpv_1IfQXylRO--87" value="" style="shape=partialRectangle;overflow=hidden;connectable=0;fillColor=none;top=0;left=0;bottom=0;right=0;labelBackgroundColor=none;strokeColor=#AF45ED;fontColor=#095C86;sketch=1;curveFitting=1;jiggle=2;" vertex="1" parent="sSJZ3aIpv_1IfQXylRO--86">
          <mxGeometry width="30" height="30" as="geometry">
            <mxRectangle width="30" height="30" as="alternateBounds" />
          </mxGeometry>
        </mxCell>
        <mxCell id="sSJZ3aIpv_1IfQXylRO--88" value="phone_number varchar(15)" style="shape=partialRectangle;overflow=hidden;connectable=0;fillColor=none;top=0;left=0;bottom=0;right=0;align=left;spacingLeft=6;labelBackgroundColor=none;strokeColor=#AF45ED;fontColor=#095C86;sketch=1;curveFitting=1;jiggle=2;" vertex="1" parent="sSJZ3aIpv_1IfQXylRO--86">
          <mxGeometry x="30" width="220" height="30" as="geometry">
            <mxRectangle width="220" height="30" as="alternateBounds" />
          </mxGeometry>
        </mxCell>
        <mxCell id="sSJZ3aIpv_1IfQXylRO--89" value="" style="shape=partialRectangle;collapsible=0;dropTarget=0;pointerEvents=0;fillColor=none;points=[[0,0.5],[1,0.5]];portConstraint=eastwest;top=0;left=0;right=0;bottom=0;labelBackgroundColor=none;strokeColor=#AF45ED;fontColor=#095C86;sketch=1;curveFitting=1;jiggle=2;" vertex="1" parent="C-vyLk0tnHw3VtMMgP7b-13">
          <mxGeometry y="270" width="250" height="30" as="geometry" />
        </mxCell>
        <mxCell id="sSJZ3aIpv_1IfQXylRO--90" value="" style="shape=partialRectangle;overflow=hidden;connectable=0;fillColor=none;top=0;left=0;bottom=0;right=0;labelBackgroundColor=none;strokeColor=#AF45ED;fontColor=#095C86;sketch=1;curveFitting=1;jiggle=2;" vertex="1" parent="sSJZ3aIpv_1IfQXylRO--89">
          <mxGeometry width="30" height="30" as="geometry">
            <mxRectangle width="30" height="30" as="alternateBounds" />
          </mxGeometry>
        </mxCell>
        <mxCell id="sSJZ3aIpv_1IfQXylRO--91" value="address text" style="shape=partialRectangle;overflow=hidden;connectable=0;fillColor=none;top=0;left=0;bottom=0;right=0;align=left;spacingLeft=6;labelBackgroundColor=none;strokeColor=#AF45ED;fontColor=#095C86;sketch=1;curveFitting=1;jiggle=2;" vertex="1" parent="sSJZ3aIpv_1IfQXylRO--89">
          <mxGeometry x="30" width="220" height="30" as="geometry">
            <mxRectangle width="220" height="30" as="alternateBounds" />
          </mxGeometry>
        </mxCell>
        <mxCell id="sSJZ3aIpv_1IfQXylRO--92" value="" style="shape=partialRectangle;collapsible=0;dropTarget=0;pointerEvents=0;fillColor=none;points=[[0,0.5],[1,0.5]];portConstraint=eastwest;top=0;left=0;right=0;bottom=0;labelBackgroundColor=none;strokeColor=#AF45ED;fontColor=#095C86;sketch=1;curveFitting=1;jiggle=2;" vertex="1" parent="C-vyLk0tnHw3VtMMgP7b-13">
          <mxGeometry y="300" width="250" height="30" as="geometry" />
        </mxCell>
        <mxCell id="sSJZ3aIpv_1IfQXylRO--93" value="" style="shape=partialRectangle;overflow=hidden;connectable=0;fillColor=none;top=0;left=0;bottom=0;right=0;labelBackgroundColor=none;strokeColor=#AF45ED;fontColor=#095C86;sketch=1;curveFitting=1;jiggle=2;" vertex="1" parent="sSJZ3aIpv_1IfQXylRO--92">
          <mxGeometry width="30" height="30" as="geometry">
            <mxRectangle width="30" height="30" as="alternateBounds" />
          </mxGeometry>
        </mxCell>
        <mxCell id="sSJZ3aIpv_1IfQXylRO--94" value="medical_conditions text" style="shape=partialRectangle;overflow=hidden;connectable=0;fillColor=none;top=0;left=0;bottom=0;right=0;align=left;spacingLeft=6;labelBackgroundColor=none;strokeColor=#AF45ED;fontColor=#095C86;sketch=1;curveFitting=1;jiggle=2;" vertex="1" parent="sSJZ3aIpv_1IfQXylRO--92">
          <mxGeometry x="30" width="220" height="30" as="geometry">
            <mxRectangle width="220" height="30" as="alternateBounds" />
          </mxGeometry>
        </mxCell>
        <mxCell id="sSJZ3aIpv_1IfQXylRO--95" value="" style="shape=partialRectangle;collapsible=0;dropTarget=0;pointerEvents=0;fillColor=none;points=[[0,0.5],[1,0.5]];portConstraint=eastwest;top=0;left=0;right=0;bottom=0;labelBackgroundColor=none;strokeColor=#AF45ED;fontColor=#095C86;sketch=1;curveFitting=1;jiggle=2;" vertex="1" parent="C-vyLk0tnHw3VtMMgP7b-13">
          <mxGeometry y="330" width="250" height="30" as="geometry" />
        </mxCell>
        <mxCell id="sSJZ3aIpv_1IfQXylRO--96" value="" style="shape=partialRectangle;overflow=hidden;connectable=0;fillColor=none;top=0;left=0;bottom=0;right=0;labelBackgroundColor=none;strokeColor=#AF45ED;fontColor=#095C86;sketch=1;curveFitting=1;jiggle=2;" vertex="1" parent="sSJZ3aIpv_1IfQXylRO--95">
          <mxGeometry width="30" height="30" as="geometry">
            <mxRectangle width="30" height="30" as="alternateBounds" />
          </mxGeometry>
        </mxCell>
        <mxCell id="sSJZ3aIpv_1IfQXylRO--97" value="allergies text" style="shape=partialRectangle;overflow=hidden;connectable=0;fillColor=none;top=0;left=0;bottom=0;right=0;align=left;spacingLeft=6;labelBackgroundColor=none;strokeColor=#AF45ED;fontColor=#095C86;sketch=1;curveFitting=1;jiggle=2;" vertex="1" parent="sSJZ3aIpv_1IfQXylRO--95">
          <mxGeometry x="30" width="220" height="30" as="geometry">
            <mxRectangle width="220" height="30" as="alternateBounds" />
          </mxGeometry>
        </mxCell>
        <mxCell id="sSJZ3aIpv_1IfQXylRO--98" value="" style="shape=partialRectangle;collapsible=0;dropTarget=0;pointerEvents=0;fillColor=none;points=[[0,0.5],[1,0.5]];portConstraint=eastwest;top=0;left=0;right=0;bottom=0;labelBackgroundColor=none;strokeColor=#AF45ED;fontColor=#095C86;sketch=1;curveFitting=1;jiggle=2;" vertex="1" parent="C-vyLk0tnHw3VtMMgP7b-13">
          <mxGeometry y="360" width="250" height="30" as="geometry" />
        </mxCell>
        <mxCell id="sSJZ3aIpv_1IfQXylRO--99" value="" style="shape=partialRectangle;overflow=hidden;connectable=0;fillColor=none;top=0;left=0;bottom=0;right=0;labelBackgroundColor=none;strokeColor=#AF45ED;fontColor=#095C86;sketch=1;curveFitting=1;jiggle=2;" vertex="1" parent="sSJZ3aIpv_1IfQXylRO--98">
          <mxGeometry width="30" height="30" as="geometry">
            <mxRectangle width="30" height="30" as="alternateBounds" />
          </mxGeometry>
        </mxCell>
        <mxCell id="sSJZ3aIpv_1IfQXylRO--100" value="password varchar(255)" style="shape=partialRectangle;overflow=hidden;connectable=0;fillColor=none;top=0;left=0;bottom=0;right=0;align=left;spacingLeft=6;labelBackgroundColor=none;strokeColor=#AF45ED;fontColor=#095C86;sketch=1;curveFitting=1;jiggle=2;" vertex="1" parent="sSJZ3aIpv_1IfQXylRO--98">
          <mxGeometry x="30" width="220" height="30" as="geometry">
            <mxRectangle width="220" height="30" as="alternateBounds" />
          </mxGeometry>
        </mxCell>
        <mxCell id="C-vyLk0tnHw3VtMMgP7b-23" value="admin" style="shape=table;startSize=30;container=1;collapsible=1;childLayout=tableLayout;fixedRows=1;rowLines=0;fontStyle=1;align=center;resizeLast=1;labelBackgroundColor=none;fillColor=#F694C1;strokeColor=#AF45ED;fontColor=#095C86;sketch=1;curveFitting=1;jiggle=2;" parent="1" vertex="1">
          <mxGeometry x="80" y="40" width="250" height="240" as="geometry" />
        </mxCell>
        <mxCell id="C-vyLk0tnHw3VtMMgP7b-24" value="" style="shape=partialRectangle;collapsible=0;dropTarget=0;pointerEvents=0;fillColor=none;points=[[0,0.5],[1,0.5]];portConstraint=eastwest;top=0;left=0;right=0;bottom=1;labelBackgroundColor=none;strokeColor=#AF45ED;fontColor=#095C86;sketch=1;curveFitting=1;jiggle=2;" parent="C-vyLk0tnHw3VtMMgP7b-23" vertex="1">
          <mxGeometry y="30" width="250" height="30" as="geometry" />
        </mxCell>
        <mxCell id="C-vyLk0tnHw3VtMMgP7b-25" value="PK" style="shape=partialRectangle;overflow=hidden;connectable=0;fillColor=none;top=0;left=0;bottom=0;right=0;fontStyle=1;labelBackgroundColor=none;strokeColor=#AF45ED;fontColor=#095C86;sketch=1;curveFitting=1;jiggle=2;" parent="C-vyLk0tnHw3VtMMgP7b-24" vertex="1">
          <mxGeometry width="30" height="30" as="geometry">
            <mxRectangle width="30" height="30" as="alternateBounds" />
          </mxGeometry>
        </mxCell>
        <mxCell id="C-vyLk0tnHw3VtMMgP7b-26" value="admin id int NOT NULL" style="shape=partialRectangle;overflow=hidden;connectable=0;fillColor=none;top=0;left=0;bottom=0;right=0;align=left;spacingLeft=6;fontStyle=5;labelBackgroundColor=none;strokeColor=#AF45ED;fontColor=#095C86;sketch=1;curveFitting=1;jiggle=2;" parent="C-vyLk0tnHw3VtMMgP7b-24" vertex="1">
          <mxGeometry x="30" width="220" height="30" as="geometry">
            <mxRectangle width="220" height="30" as="alternateBounds" />
          </mxGeometry>
        </mxCell>
        <mxCell id="C-vyLk0tnHw3VtMMgP7b-27" value="" style="shape=partialRectangle;collapsible=0;dropTarget=0;pointerEvents=0;fillColor=none;points=[[0,0.5],[1,0.5]];portConstraint=eastwest;top=0;left=0;right=0;bottom=0;labelBackgroundColor=none;strokeColor=#AF45ED;fontColor=#095C86;sketch=1;curveFitting=1;jiggle=2;" parent="C-vyLk0tnHw3VtMMgP7b-23" vertex="1">
          <mxGeometry y="60" width="250" height="30" as="geometry" />
        </mxCell>
        <mxCell id="C-vyLk0tnHw3VtMMgP7b-28" value="FK1" style="shape=partialRectangle;overflow=hidden;connectable=0;fillColor=none;top=0;left=0;bottom=0;right=0;labelBackgroundColor=none;strokeColor=#AF45ED;fontColor=#095C86;sketch=1;curveFitting=1;jiggle=2;" parent="C-vyLk0tnHw3VtMMgP7b-27" vertex="1">
          <mxGeometry width="30" height="30" as="geometry">
            <mxRectangle width="30" height="30" as="alternateBounds" />
          </mxGeometry>
        </mxCell>
        <mxCell id="C-vyLk0tnHw3VtMMgP7b-29" value="user_id int " style="shape=partialRectangle;overflow=hidden;connectable=0;fillColor=none;top=0;left=0;bottom=0;right=0;align=left;spacingLeft=6;labelBackgroundColor=none;strokeColor=#AF45ED;fontColor=#095C86;sketch=1;curveFitting=1;jiggle=2;" parent="C-vyLk0tnHw3VtMMgP7b-27" vertex="1">
          <mxGeometry x="30" width="220" height="30" as="geometry">
            <mxRectangle width="220" height="30" as="alternateBounds" />
          </mxGeometry>
        </mxCell>
        <mxCell id="sSJZ3aIpv_1IfQXylRO--40" value="" style="shape=partialRectangle;collapsible=0;dropTarget=0;pointerEvents=0;fillColor=none;points=[[0,0.5],[1,0.5]];portConstraint=eastwest;top=0;left=0;right=0;bottom=0;labelBackgroundColor=none;strokeColor=#AF45ED;fontColor=#095C86;sketch=1;curveFitting=1;jiggle=2;" vertex="1" parent="C-vyLk0tnHw3VtMMgP7b-23">
          <mxGeometry y="90" width="250" height="30" as="geometry" />
        </mxCell>
        <mxCell id="sSJZ3aIpv_1IfQXylRO--41" value="" style="shape=partialRectangle;overflow=hidden;connectable=0;fillColor=none;top=0;left=0;bottom=0;right=0;labelBackgroundColor=none;strokeColor=#AF45ED;fontColor=#095C86;sketch=1;curveFitting=1;jiggle=2;" vertex="1" parent="sSJZ3aIpv_1IfQXylRO--40">
          <mxGeometry width="30" height="30" as="geometry">
            <mxRectangle width="30" height="30" as="alternateBounds" />
          </mxGeometry>
        </mxCell>
        <mxCell id="sSJZ3aIpv_1IfQXylRO--42" value="first_name varchar(100) NOT NULL" style="shape=partialRectangle;overflow=hidden;connectable=0;fillColor=none;top=0;left=0;bottom=0;right=0;align=left;spacingLeft=6;labelBackgroundColor=none;strokeColor=#AF45ED;fontColor=#095C86;sketch=1;curveFitting=1;jiggle=2;" vertex="1" parent="sSJZ3aIpv_1IfQXylRO--40">
          <mxGeometry x="30" width="220" height="30" as="geometry">
            <mxRectangle width="220" height="30" as="alternateBounds" />
          </mxGeometry>
        </mxCell>
        <mxCell id="sSJZ3aIpv_1IfQXylRO--43" value="" style="shape=partialRectangle;collapsible=0;dropTarget=0;pointerEvents=0;fillColor=none;points=[[0,0.5],[1,0.5]];portConstraint=eastwest;top=0;left=0;right=0;bottom=0;labelBackgroundColor=none;strokeColor=#AF45ED;fontColor=#095C86;sketch=1;curveFitting=1;jiggle=2;" vertex="1" parent="C-vyLk0tnHw3VtMMgP7b-23">
          <mxGeometry y="120" width="250" height="30" as="geometry" />
        </mxCell>
        <mxCell id="sSJZ3aIpv_1IfQXylRO--44" value="" style="shape=partialRectangle;overflow=hidden;connectable=0;fillColor=none;top=0;left=0;bottom=0;right=0;labelBackgroundColor=none;strokeColor=#AF45ED;fontColor=#095C86;sketch=1;curveFitting=1;jiggle=2;" vertex="1" parent="sSJZ3aIpv_1IfQXylRO--43">
          <mxGeometry width="30" height="30" as="geometry">
            <mxRectangle width="30" height="30" as="alternateBounds" />
          </mxGeometry>
        </mxCell>
        <mxCell id="sSJZ3aIpv_1IfQXylRO--45" value="last_name varchar(100)NOT NULL" style="shape=partialRectangle;overflow=hidden;connectable=0;fillColor=none;top=0;left=0;bottom=0;right=0;align=left;spacingLeft=6;labelBackgroundColor=none;strokeColor=#AF45ED;fontColor=#095C86;sketch=1;curveFitting=1;jiggle=2;" vertex="1" parent="sSJZ3aIpv_1IfQXylRO--43">
          <mxGeometry x="30" width="220" height="30" as="geometry">
            <mxRectangle width="220" height="30" as="alternateBounds" />
          </mxGeometry>
        </mxCell>
        <mxCell id="sSJZ3aIpv_1IfQXylRO--46" value="" style="shape=partialRectangle;collapsible=0;dropTarget=0;pointerEvents=0;fillColor=none;points=[[0,0.5],[1,0.5]];portConstraint=eastwest;top=0;left=0;right=0;bottom=0;labelBackgroundColor=none;strokeColor=#AF45ED;fontColor=#095C86;sketch=1;curveFitting=1;jiggle=2;" vertex="1" parent="C-vyLk0tnHw3VtMMgP7b-23">
          <mxGeometry y="150" width="250" height="30" as="geometry" />
        </mxCell>
        <mxCell id="sSJZ3aIpv_1IfQXylRO--47" value="" style="shape=partialRectangle;overflow=hidden;connectable=0;fillColor=none;top=0;left=0;bottom=0;right=0;labelBackgroundColor=none;strokeColor=#AF45ED;fontColor=#095C86;sketch=1;curveFitting=1;jiggle=2;" vertex="1" parent="sSJZ3aIpv_1IfQXylRO--46">
          <mxGeometry width="30" height="30" as="geometry">
            <mxRectangle width="30" height="30" as="alternateBounds" />
          </mxGeometry>
        </mxCell>
        <mxCell id="sSJZ3aIpv_1IfQXylRO--48" value="email varchar(150) NOT NULL" style="shape=partialRectangle;overflow=hidden;connectable=0;fillColor=none;top=0;left=0;bottom=0;right=0;align=left;spacingLeft=6;labelBackgroundColor=none;strokeColor=#AF45ED;fontColor=#095C86;sketch=1;curveFitting=1;jiggle=2;" vertex="1" parent="sSJZ3aIpv_1IfQXylRO--46">
          <mxGeometry x="30" width="220" height="30" as="geometry">
            <mxRectangle width="220" height="30" as="alternateBounds" />
          </mxGeometry>
        </mxCell>
        <mxCell id="sSJZ3aIpv_1IfQXylRO--49" value="" style="shape=partialRectangle;collapsible=0;dropTarget=0;pointerEvents=0;fillColor=none;points=[[0,0.5],[1,0.5]];portConstraint=eastwest;top=0;left=0;right=0;bottom=0;labelBackgroundColor=none;strokeColor=#AF45ED;fontColor=#095C86;sketch=1;curveFitting=1;jiggle=2;" vertex="1" parent="C-vyLk0tnHw3VtMMgP7b-23">
          <mxGeometry y="180" width="250" height="30" as="geometry" />
        </mxCell>
        <mxCell id="sSJZ3aIpv_1IfQXylRO--50" value="" style="shape=partialRectangle;overflow=hidden;connectable=0;fillColor=none;top=0;left=0;bottom=0;right=0;labelBackgroundColor=none;strokeColor=#AF45ED;fontColor=#095C86;sketch=1;curveFitting=1;jiggle=2;" vertex="1" parent="sSJZ3aIpv_1IfQXylRO--49">
          <mxGeometry width="30" height="30" as="geometry">
            <mxRectangle width="30" height="30" as="alternateBounds" />
          </mxGeometry>
        </mxCell>
        <mxCell id="sSJZ3aIpv_1IfQXylRO--51" value="phone_number varchar(15)" style="shape=partialRectangle;overflow=hidden;connectable=0;fillColor=none;top=0;left=0;bottom=0;right=0;align=left;spacingLeft=6;labelBackgroundColor=none;strokeColor=#AF45ED;fontColor=#095C86;sketch=1;curveFitting=1;jiggle=2;" vertex="1" parent="sSJZ3aIpv_1IfQXylRO--49">
          <mxGeometry x="30" width="220" height="30" as="geometry">
            <mxRectangle width="220" height="30" as="alternateBounds" />
          </mxGeometry>
        </mxCell>
        <mxCell id="sSJZ3aIpv_1IfQXylRO--52" value="" style="shape=partialRectangle;collapsible=0;dropTarget=0;pointerEvents=0;fillColor=none;points=[[0,0.5],[1,0.5]];portConstraint=eastwest;top=0;left=0;right=0;bottom=0;labelBackgroundColor=none;strokeColor=#AF45ED;fontColor=#095C86;sketch=1;curveFitting=1;jiggle=2;" vertex="1" parent="C-vyLk0tnHw3VtMMgP7b-23">
          <mxGeometry y="210" width="250" height="30" as="geometry" />
        </mxCell>
        <mxCell id="sSJZ3aIpv_1IfQXylRO--53" value="" style="shape=partialRectangle;overflow=hidden;connectable=0;fillColor=none;top=0;left=0;bottom=0;right=0;labelBackgroundColor=none;strokeColor=#AF45ED;fontColor=#095C86;sketch=1;curveFitting=1;jiggle=2;" vertex="1" parent="sSJZ3aIpv_1IfQXylRO--52">
          <mxGeometry width="30" height="30" as="geometry">
            <mxRectangle width="30" height="30" as="alternateBounds" />
          </mxGeometry>
        </mxCell>
        <mxCell id="sSJZ3aIpv_1IfQXylRO--54" value="password varchar(255)" style="shape=partialRectangle;overflow=hidden;connectable=0;fillColor=none;top=0;left=0;bottom=0;right=0;align=left;spacingLeft=6;labelBackgroundColor=none;strokeColor=#AF45ED;fontColor=#095C86;sketch=1;curveFitting=1;jiggle=2;" vertex="1" parent="sSJZ3aIpv_1IfQXylRO--52">
          <mxGeometry x="30" width="220" height="30" as="geometry">
            <mxRectangle width="220" height="30" as="alternateBounds" />
          </mxGeometry>
        </mxCell>
        <mxCell id="sSJZ3aIpv_1IfQXylRO--1" value="users" style="shape=table;startSize=30;container=1;collapsible=1;childLayout=tableLayout;fixedRows=1;rowLines=0;fontStyle=1;align=center;resizeLast=1;html=1;labelBackgroundColor=none;fillColor=#F694C1;strokeColor=#AF45ED;fontColor=#095C86;sketch=1;curveFitting=1;jiggle=2;" vertex="1" parent="1">
          <mxGeometry x="470" y="480" width="270" height="240" as="geometry" />
        </mxCell>
        <mxCell id="sSJZ3aIpv_1IfQXylRO--2" value="" style="shape=tableRow;horizontal=0;startSize=0;swimlaneHead=0;swimlaneBody=0;fillColor=none;collapsible=0;dropTarget=0;points=[[0,0.5],[1,0.5]];portConstraint=eastwest;top=0;left=0;right=0;bottom=1;labelBackgroundColor=none;strokeColor=#AF45ED;fontColor=#095C86;sketch=1;curveFitting=1;jiggle=2;" vertex="1" parent="sSJZ3aIpv_1IfQXylRO--1">
          <mxGeometry y="30" width="270" height="30" as="geometry" />
        </mxCell>
        <mxCell id="sSJZ3aIpv_1IfQXylRO--3" value="PK" style="shape=partialRectangle;connectable=0;fillColor=none;top=0;left=0;bottom=0;right=0;fontStyle=1;overflow=hidden;whiteSpace=wrap;html=1;labelBackgroundColor=none;strokeColor=#AF45ED;fontColor=#095C86;sketch=1;curveFitting=1;jiggle=2;" vertex="1" parent="sSJZ3aIpv_1IfQXylRO--2">
          <mxGeometry width="30" height="30" as="geometry">
            <mxRectangle width="30" height="30" as="alternateBounds" />
          </mxGeometry>
        </mxCell>
        <mxCell id="sSJZ3aIpv_1IfQXylRO--4" value="users id int NOT NULL" style="shape=partialRectangle;connectable=0;fillColor=none;top=0;left=0;bottom=0;right=0;align=left;spacingLeft=6;fontStyle=5;overflow=hidden;whiteSpace=wrap;html=1;labelBackgroundColor=none;strokeColor=#AF45ED;fontColor=#095C86;sketch=1;curveFitting=1;jiggle=2;" vertex="1" parent="sSJZ3aIpv_1IfQXylRO--2">
          <mxGeometry x="30" width="240" height="30" as="geometry">
            <mxRectangle width="240" height="30" as="alternateBounds" />
          </mxGeometry>
        </mxCell>
        <mxCell id="sSJZ3aIpv_1IfQXylRO--5" value="" style="shape=tableRow;horizontal=0;startSize=0;swimlaneHead=0;swimlaneBody=0;fillColor=none;collapsible=0;dropTarget=0;points=[[0,0.5],[1,0.5]];portConstraint=eastwest;top=0;left=0;right=0;bottom=0;labelBackgroundColor=none;strokeColor=#AF45ED;fontColor=#095C86;sketch=1;curveFitting=1;jiggle=2;" vertex="1" parent="sSJZ3aIpv_1IfQXylRO--1">
          <mxGeometry y="60" width="270" height="30" as="geometry" />
        </mxCell>
        <mxCell id="sSJZ3aIpv_1IfQXylRO--6" value="FK1" style="shape=partialRectangle;connectable=0;fillColor=none;top=0;left=0;bottom=0;right=0;editable=1;overflow=hidden;whiteSpace=wrap;html=1;labelBackgroundColor=none;strokeColor=#AF45ED;fontColor=#095C86;sketch=1;curveFitting=1;jiggle=2;" vertex="1" parent="sSJZ3aIpv_1IfQXylRO--5">
          <mxGeometry width="30" height="30" as="geometry">
            <mxRectangle width="30" height="30" as="alternateBounds" />
          </mxGeometry>
        </mxCell>
        <mxCell id="sSJZ3aIpv_1IfQXylRO--7" value="email varchar(255) NOT NULL" style="shape=partialRectangle;connectable=0;fillColor=none;top=0;left=0;bottom=0;right=0;align=left;spacingLeft=6;overflow=hidden;whiteSpace=wrap;html=1;labelBackgroundColor=none;strokeColor=#AF45ED;fontColor=#095C86;sketch=1;curveFitting=1;jiggle=2;" vertex="1" parent="sSJZ3aIpv_1IfQXylRO--5">
          <mxGeometry x="30" width="240" height="30" as="geometry">
            <mxRectangle width="240" height="30" as="alternateBounds" />
          </mxGeometry>
        </mxCell>
        <mxCell id="sSJZ3aIpv_1IfQXylRO--8" value="" style="shape=tableRow;horizontal=0;startSize=0;swimlaneHead=0;swimlaneBody=0;fillColor=none;collapsible=0;dropTarget=0;points=[[0,0.5],[1,0.5]];portConstraint=eastwest;top=0;left=0;right=0;bottom=0;labelBackgroundColor=none;strokeColor=#AF45ED;fontColor=#095C86;sketch=1;curveFitting=1;jiggle=2;" vertex="1" parent="sSJZ3aIpv_1IfQXylRO--1">
          <mxGeometry y="90" width="270" height="30" as="geometry" />
        </mxCell>
        <mxCell id="sSJZ3aIpv_1IfQXylRO--9" value="" style="shape=partialRectangle;connectable=0;fillColor=none;top=0;left=0;bottom=0;right=0;editable=1;overflow=hidden;whiteSpace=wrap;html=1;labelBackgroundColor=none;strokeColor=#AF45ED;fontColor=#095C86;sketch=1;curveFitting=1;jiggle=2;" vertex="1" parent="sSJZ3aIpv_1IfQXylRO--8">
          <mxGeometry width="30" height="30" as="geometry">
            <mxRectangle width="30" height="30" as="alternateBounds" />
          </mxGeometry>
        </mxCell>
        <mxCell id="sSJZ3aIpv_1IfQXylRO--10" value="username varchar(150) NOT NULL" style="shape=partialRectangle;connectable=0;fillColor=none;top=0;left=0;bottom=0;right=0;align=left;spacingLeft=6;overflow=hidden;whiteSpace=wrap;html=1;labelBackgroundColor=none;strokeColor=#AF45ED;fontColor=#095C86;sketch=1;curveFitting=1;jiggle=2;" vertex="1" parent="sSJZ3aIpv_1IfQXylRO--8">
          <mxGeometry x="30" width="240" height="30" as="geometry">
            <mxRectangle width="240" height="30" as="alternateBounds" />
          </mxGeometry>
        </mxCell>
        <mxCell id="sSJZ3aIpv_1IfQXylRO--11" value="" style="shape=tableRow;horizontal=0;startSize=0;swimlaneHead=0;swimlaneBody=0;fillColor=none;collapsible=0;dropTarget=0;points=[[0,0.5],[1,0.5]];portConstraint=eastwest;top=0;left=0;right=0;bottom=0;labelBackgroundColor=none;strokeColor=#AF45ED;fontColor=#095C86;sketch=1;curveFitting=1;jiggle=2;" vertex="1" parent="sSJZ3aIpv_1IfQXylRO--1">
          <mxGeometry y="120" width="270" height="30" as="geometry" />
        </mxCell>
        <mxCell id="sSJZ3aIpv_1IfQXylRO--12" value="" style="shape=partialRectangle;connectable=0;fillColor=none;top=0;left=0;bottom=0;right=0;editable=1;overflow=hidden;whiteSpace=wrap;html=1;labelBackgroundColor=none;strokeColor=#AF45ED;fontColor=#095C86;sketch=1;curveFitting=1;jiggle=2;" vertex="1" parent="sSJZ3aIpv_1IfQXylRO--11">
          <mxGeometry width="30" height="30" as="geometry">
            <mxRectangle width="30" height="30" as="alternateBounds" />
          </mxGeometry>
        </mxCell>
        <mxCell id="sSJZ3aIpv_1IfQXylRO--13" value="password varchar(255) NOT NULL" style="shape=partialRectangle;connectable=0;fillColor=none;top=0;left=0;bottom=0;right=0;align=left;spacingLeft=6;overflow=hidden;whiteSpace=wrap;html=1;labelBackgroundColor=none;strokeColor=#AF45ED;fontColor=#095C86;sketch=1;curveFitting=1;jiggle=2;" vertex="1" parent="sSJZ3aIpv_1IfQXylRO--11">
          <mxGeometry x="30" width="240" height="30" as="geometry">
            <mxRectangle width="240" height="30" as="alternateBounds" />
          </mxGeometry>
        </mxCell>
        <mxCell id="sSJZ3aIpv_1IfQXylRO--125" value="" style="shape=tableRow;horizontal=0;startSize=0;swimlaneHead=0;swimlaneBody=0;fillColor=none;collapsible=0;dropTarget=0;points=[[0,0.5],[1,0.5]];portConstraint=eastwest;top=0;left=0;right=0;bottom=0;labelBackgroundColor=none;strokeColor=#AF45ED;fontColor=#095C86;sketch=1;curveFitting=1;jiggle=2;" vertex="1" parent="sSJZ3aIpv_1IfQXylRO--1">
          <mxGeometry y="150" width="270" height="30" as="geometry" />
        </mxCell>
        <mxCell id="sSJZ3aIpv_1IfQXylRO--126" value="" style="shape=partialRectangle;connectable=0;fillColor=none;top=0;left=0;bottom=0;right=0;editable=1;overflow=hidden;whiteSpace=wrap;html=1;labelBackgroundColor=none;strokeColor=#AF45ED;fontColor=#095C86;sketch=1;curveFitting=1;jiggle=2;" vertex="1" parent="sSJZ3aIpv_1IfQXylRO--125">
          <mxGeometry width="30" height="30" as="geometry">
            <mxRectangle width="30" height="30" as="alternateBounds" />
          </mxGeometry>
        </mxCell>
        <mxCell id="sSJZ3aIpv_1IfQXylRO--127" value="role enum(&#39;admin&#39;,&#39;provider&#39;,&#39;patient&#39;)" style="shape=partialRectangle;connectable=0;fillColor=none;top=0;left=0;bottom=0;right=0;align=left;spacingLeft=6;overflow=hidden;whiteSpace=wrap;html=1;labelBackgroundColor=none;strokeColor=#AF45ED;fontColor=#095C86;sketch=1;curveFitting=1;jiggle=2;" vertex="1" parent="sSJZ3aIpv_1IfQXylRO--125">
          <mxGeometry x="30" width="240" height="30" as="geometry">
            <mxRectangle width="240" height="30" as="alternateBounds" />
          </mxGeometry>
        </mxCell>
        <mxCell id="sSJZ3aIpv_1IfQXylRO--128" value="" style="shape=tableRow;horizontal=0;startSize=0;swimlaneHead=0;swimlaneBody=0;fillColor=none;collapsible=0;dropTarget=0;points=[[0,0.5],[1,0.5]];portConstraint=eastwest;top=0;left=0;right=0;bottom=0;labelBackgroundColor=none;strokeColor=#AF45ED;fontColor=#095C86;sketch=1;curveFitting=1;jiggle=2;" vertex="1" parent="sSJZ3aIpv_1IfQXylRO--1">
          <mxGeometry y="180" width="270" height="30" as="geometry" />
        </mxCell>
        <mxCell id="sSJZ3aIpv_1IfQXylRO--129" value="" style="shape=partialRectangle;connectable=0;fillColor=none;top=0;left=0;bottom=0;right=0;editable=1;overflow=hidden;whiteSpace=wrap;html=1;labelBackgroundColor=none;strokeColor=#AF45ED;fontColor=#095C86;sketch=1;curveFitting=1;jiggle=2;" vertex="1" parent="sSJZ3aIpv_1IfQXylRO--128">
          <mxGeometry width="30" height="30" as="geometry">
            <mxRectangle width="30" height="30" as="alternateBounds" />
          </mxGeometry>
        </mxCell>
        <mxCell id="sSJZ3aIpv_1IfQXylRO--130" value="created_at timestamp" style="shape=partialRectangle;connectable=0;fillColor=none;top=0;left=0;bottom=0;right=0;align=left;spacingLeft=6;overflow=hidden;whiteSpace=wrap;html=1;labelBackgroundColor=none;strokeColor=#AF45ED;fontColor=#095C86;sketch=1;curveFitting=1;jiggle=2;" vertex="1" parent="sSJZ3aIpv_1IfQXylRO--128">
          <mxGeometry x="30" width="240" height="30" as="geometry">
            <mxRectangle width="240" height="30" as="alternateBounds" />
          </mxGeometry>
        </mxCell>
        <mxCell id="sSJZ3aIpv_1IfQXylRO--131" value="" style="shape=tableRow;horizontal=0;startSize=0;swimlaneHead=0;swimlaneBody=0;fillColor=none;collapsible=0;dropTarget=0;points=[[0,0.5],[1,0.5]];portConstraint=eastwest;top=0;left=0;right=0;bottom=0;labelBackgroundColor=none;strokeColor=#AF45ED;fontColor=#095C86;sketch=1;curveFitting=1;jiggle=2;" vertex="1" parent="sSJZ3aIpv_1IfQXylRO--1">
          <mxGeometry y="210" width="270" height="30" as="geometry" />
        </mxCell>
        <mxCell id="sSJZ3aIpv_1IfQXylRO--132" value="" style="shape=partialRectangle;connectable=0;fillColor=none;top=0;left=0;bottom=0;right=0;editable=1;overflow=hidden;whiteSpace=wrap;html=1;labelBackgroundColor=none;strokeColor=#AF45ED;fontColor=#095C86;sketch=1;curveFitting=1;jiggle=2;" vertex="1" parent="sSJZ3aIpv_1IfQXylRO--131">
          <mxGeometry width="30" height="30" as="geometry">
            <mxRectangle width="30" height="30" as="alternateBounds" />
          </mxGeometry>
        </mxCell>
        <mxCell id="sSJZ3aIpv_1IfQXylRO--133" value="updated_at timestamp" style="shape=partialRectangle;connectable=0;fillColor=none;top=0;left=0;bottom=0;right=0;align=left;spacingLeft=6;overflow=hidden;whiteSpace=wrap;html=1;labelBackgroundColor=none;strokeColor=#AF45ED;fontColor=#095C86;sketch=1;curveFitting=1;jiggle=2;" vertex="1" parent="sSJZ3aIpv_1IfQXylRO--131">
          <mxGeometry x="30" width="240" height="30" as="geometry">
            <mxRectangle width="240" height="30" as="alternateBounds" />
          </mxGeometry>
        </mxCell>
        <mxCell id="sSJZ3aIpv_1IfQXylRO--14" value="vaccination_records" style="shape=table;startSize=30;container=1;collapsible=1;childLayout=tableLayout;fixedRows=1;rowLines=0;fontStyle=1;align=center;resizeLast=1;html=1;labelBackgroundColor=none;fillColor=#F694C1;strokeColor=#AF45ED;fontColor=#095C86;sketch=1;curveFitting=1;jiggle=2;" vertex="1" parent="1">
          <mxGeometry x="120" y="760" width="275" height="330" as="geometry" />
        </mxCell>
        <mxCell id="sSJZ3aIpv_1IfQXylRO--141" value="" style="shape=tableRow;horizontal=0;startSize=0;swimlaneHead=0;swimlaneBody=0;fillColor=none;collapsible=0;dropTarget=0;points=[[0,0.5],[1,0.5]];portConstraint=eastwest;top=0;left=0;right=0;bottom=1;labelBackgroundColor=none;strokeColor=#AF45ED;fontColor=#095C86;sketch=1;curveFitting=1;jiggle=2;" vertex="1" parent="sSJZ3aIpv_1IfQXylRO--14">
          <mxGeometry y="30" width="275" height="30" as="geometry" />
        </mxCell>
        <mxCell id="sSJZ3aIpv_1IfQXylRO--142" value="PK" style="shape=partialRectangle;connectable=0;fillColor=none;top=0;left=0;bottom=0;right=0;fontStyle=1;overflow=hidden;whiteSpace=wrap;html=1;labelBackgroundColor=none;strokeColor=#AF45ED;fontColor=#095C86;sketch=1;curveFitting=1;jiggle=2;" vertex="1" parent="sSJZ3aIpv_1IfQXylRO--141">
          <mxGeometry width="30" height="30" as="geometry">
            <mxRectangle width="30" height="30" as="alternateBounds" />
          </mxGeometry>
        </mxCell>
        <mxCell id="sSJZ3aIpv_1IfQXylRO--143" value="vaccination_records id int NOT NULL" style="shape=partialRectangle;connectable=0;fillColor=none;top=0;left=0;bottom=0;right=0;align=left;spacingLeft=6;fontStyle=5;overflow=hidden;whiteSpace=wrap;html=1;labelBackgroundColor=none;strokeColor=#AF45ED;fontColor=#095C86;sketch=1;curveFitting=1;jiggle=2;" vertex="1" parent="sSJZ3aIpv_1IfQXylRO--141">
          <mxGeometry x="30" width="245" height="30" as="geometry">
            <mxRectangle width="245" height="30" as="alternateBounds" />
          </mxGeometry>
        </mxCell>
        <mxCell id="sSJZ3aIpv_1IfQXylRO--15" value="" style="shape=tableRow;horizontal=0;startSize=0;swimlaneHead=0;swimlaneBody=0;fillColor=none;collapsible=0;dropTarget=0;points=[[0,0.5],[1,0.5]];portConstraint=eastwest;top=0;left=0;right=0;bottom=1;labelBackgroundColor=none;strokeColor=#AF45ED;fontColor=#095C86;sketch=1;curveFitting=1;jiggle=2;" vertex="1" parent="sSJZ3aIpv_1IfQXylRO--14">
          <mxGeometry y="60" width="275" height="30" as="geometry" />
        </mxCell>
        <mxCell id="sSJZ3aIpv_1IfQXylRO--16" value="PK" style="shape=partialRectangle;connectable=0;fillColor=none;top=0;left=0;bottom=0;right=0;fontStyle=1;overflow=hidden;whiteSpace=wrap;html=1;labelBackgroundColor=none;strokeColor=#AF45ED;fontColor=#095C86;sketch=1;curveFitting=1;jiggle=2;" vertex="1" parent="sSJZ3aIpv_1IfQXylRO--15">
          <mxGeometry width="30" height="30" as="geometry">
            <mxRectangle width="30" height="30" as="alternateBounds" />
          </mxGeometry>
        </mxCell>
        <mxCell id="sSJZ3aIpv_1IfQXylRO--17" value="vaccination_records id int NOT NULL" style="shape=partialRectangle;connectable=0;fillColor=none;top=0;left=0;bottom=0;right=0;align=left;spacingLeft=6;fontStyle=5;overflow=hidden;whiteSpace=wrap;html=1;labelBackgroundColor=none;strokeColor=#AF45ED;fontColor=#095C86;sketch=1;curveFitting=1;jiggle=2;" vertex="1" parent="sSJZ3aIpv_1IfQXylRO--15">
          <mxGeometry x="30" width="245" height="30" as="geometry">
            <mxRectangle width="245" height="30" as="alternateBounds" />
          </mxGeometry>
        </mxCell>
        <mxCell id="sSJZ3aIpv_1IfQXylRO--18" value="" style="shape=tableRow;horizontal=0;startSize=0;swimlaneHead=0;swimlaneBody=0;fillColor=none;collapsible=0;dropTarget=0;points=[[0,0.5],[1,0.5]];portConstraint=eastwest;top=0;left=0;right=0;bottom=0;labelBackgroundColor=none;strokeColor=#AF45ED;fontColor=#095C86;sketch=1;curveFitting=1;jiggle=2;" vertex="1" parent="sSJZ3aIpv_1IfQXylRO--14">
          <mxGeometry y="90" width="275" height="30" as="geometry" />
        </mxCell>
        <mxCell id="sSJZ3aIpv_1IfQXylRO--19" value="FK1" style="shape=partialRectangle;connectable=0;fillColor=none;top=0;left=0;bottom=0;right=0;editable=1;overflow=hidden;whiteSpace=wrap;html=1;labelBackgroundColor=none;strokeColor=#AF45ED;fontColor=#095C86;sketch=1;curveFitting=1;jiggle=2;" vertex="1" parent="sSJZ3aIpv_1IfQXylRO--18">
          <mxGeometry width="30" height="30" as="geometry">
            <mxRectangle width="30" height="30" as="alternateBounds" />
          </mxGeometry>
        </mxCell>
        <mxCell id="sSJZ3aIpv_1IfQXylRO--20" value="individual_id int" style="shape=partialRectangle;connectable=0;fillColor=none;top=0;left=0;bottom=0;right=0;align=left;spacingLeft=6;overflow=hidden;whiteSpace=wrap;html=1;labelBackgroundColor=none;strokeColor=#AF45ED;fontColor=#095C86;sketch=1;curveFitting=1;jiggle=2;" vertex="1" parent="sSJZ3aIpv_1IfQXylRO--18">
          <mxGeometry x="30" width="245" height="30" as="geometry">
            <mxRectangle width="245" height="30" as="alternateBounds" />
          </mxGeometry>
        </mxCell>
        <mxCell id="sSJZ3aIpv_1IfQXylRO--21" value="" style="shape=tableRow;horizontal=0;startSize=0;swimlaneHead=0;swimlaneBody=0;fillColor=none;collapsible=0;dropTarget=0;points=[[0,0.5],[1,0.5]];portConstraint=eastwest;top=0;left=0;right=0;bottom=0;labelBackgroundColor=none;strokeColor=#AF45ED;fontColor=#095C86;sketch=1;curveFitting=1;jiggle=2;" vertex="1" parent="sSJZ3aIpv_1IfQXylRO--14">
          <mxGeometry y="120" width="275" height="30" as="geometry" />
        </mxCell>
        <mxCell id="sSJZ3aIpv_1IfQXylRO--22" value="FK2" style="shape=partialRectangle;connectable=0;fillColor=none;top=0;left=0;bottom=0;right=0;editable=1;overflow=hidden;whiteSpace=wrap;html=1;labelBackgroundColor=none;strokeColor=#AF45ED;fontColor=#095C86;sketch=1;curveFitting=1;jiggle=2;" vertex="1" parent="sSJZ3aIpv_1IfQXylRO--21">
          <mxGeometry width="30" height="30" as="geometry">
            <mxRectangle width="30" height="30" as="alternateBounds" />
          </mxGeometry>
        </mxCell>
        <mxCell id="sSJZ3aIpv_1IfQXylRO--23" value="vaccination_id int" style="shape=partialRectangle;connectable=0;fillColor=none;top=0;left=0;bottom=0;right=0;align=left;spacingLeft=6;overflow=hidden;whiteSpace=wrap;html=1;labelBackgroundColor=none;strokeColor=#AF45ED;fontColor=#095C86;sketch=1;curveFitting=1;jiggle=2;" vertex="1" parent="sSJZ3aIpv_1IfQXylRO--21">
          <mxGeometry x="30" width="245" height="30" as="geometry">
            <mxRectangle width="245" height="30" as="alternateBounds" />
          </mxGeometry>
        </mxCell>
        <mxCell id="sSJZ3aIpv_1IfQXylRO--24" value="" style="shape=tableRow;horizontal=0;startSize=0;swimlaneHead=0;swimlaneBody=0;fillColor=none;collapsible=0;dropTarget=0;points=[[0,0.5],[1,0.5]];portConstraint=eastwest;top=0;left=0;right=0;bottom=0;labelBackgroundColor=none;strokeColor=#AF45ED;fontColor=#095C86;sketch=1;curveFitting=1;jiggle=2;" vertex="1" parent="sSJZ3aIpv_1IfQXylRO--14">
          <mxGeometry y="150" width="275" height="30" as="geometry" />
        </mxCell>
        <mxCell id="sSJZ3aIpv_1IfQXylRO--25" value="" style="shape=partialRectangle;connectable=0;fillColor=none;top=0;left=0;bottom=0;right=0;editable=1;overflow=hidden;whiteSpace=wrap;html=1;labelBackgroundColor=none;strokeColor=#AF45ED;fontColor=#095C86;sketch=1;curveFitting=1;jiggle=2;" vertex="1" parent="sSJZ3aIpv_1IfQXylRO--24">
          <mxGeometry width="30" height="30" as="geometry">
            <mxRectangle width="30" height="30" as="alternateBounds" />
          </mxGeometry>
        </mxCell>
        <mxCell id="sSJZ3aIpv_1IfQXylRO--26" value="date_given date" style="shape=partialRectangle;connectable=0;fillColor=none;top=0;left=0;bottom=0;right=0;align=left;spacingLeft=6;overflow=hidden;whiteSpace=wrap;html=1;labelBackgroundColor=none;strokeColor=#AF45ED;fontColor=#095C86;sketch=1;curveFitting=1;jiggle=2;" vertex="1" parent="sSJZ3aIpv_1IfQXylRO--24">
          <mxGeometry x="30" width="245" height="30" as="geometry">
            <mxRectangle width="245" height="30" as="alternateBounds" />
          </mxGeometry>
        </mxCell>
        <mxCell id="sSJZ3aIpv_1IfQXylRO--110" value="" style="shape=tableRow;horizontal=0;startSize=0;swimlaneHead=0;swimlaneBody=0;fillColor=none;collapsible=0;dropTarget=0;points=[[0,0.5],[1,0.5]];portConstraint=eastwest;top=0;left=0;right=0;bottom=0;labelBackgroundColor=none;strokeColor=#AF45ED;fontColor=#095C86;sketch=1;curveFitting=1;jiggle=2;" vertex="1" parent="sSJZ3aIpv_1IfQXylRO--14">
          <mxGeometry y="180" width="275" height="30" as="geometry" />
        </mxCell>
        <mxCell id="sSJZ3aIpv_1IfQXylRO--111" value="" style="shape=partialRectangle;connectable=0;fillColor=none;top=0;left=0;bottom=0;right=0;editable=1;overflow=hidden;whiteSpace=wrap;html=1;labelBackgroundColor=none;strokeColor=#AF45ED;fontColor=#095C86;sketch=1;curveFitting=1;jiggle=2;" vertex="1" parent="sSJZ3aIpv_1IfQXylRO--110">
          <mxGeometry width="30" height="30" as="geometry">
            <mxRectangle width="30" height="30" as="alternateBounds" />
          </mxGeometry>
        </mxCell>
        <mxCell id="sSJZ3aIpv_1IfQXylRO--112" value="status enum(&#39;Completed&#39;,&quot;Pending&#39;)" style="shape=partialRectangle;connectable=0;fillColor=none;top=0;left=0;bottom=0;right=0;align=left;spacingLeft=6;overflow=hidden;whiteSpace=wrap;html=1;labelBackgroundColor=none;strokeColor=#AF45ED;fontColor=#095C86;sketch=1;curveFitting=1;jiggle=2;" vertex="1" parent="sSJZ3aIpv_1IfQXylRO--110">
          <mxGeometry x="30" width="245" height="30" as="geometry">
            <mxRectangle width="245" height="30" as="alternateBounds" />
          </mxGeometry>
        </mxCell>
        <mxCell id="sSJZ3aIpv_1IfQXylRO--113" value="" style="shape=tableRow;horizontal=0;startSize=0;swimlaneHead=0;swimlaneBody=0;fillColor=none;collapsible=0;dropTarget=0;points=[[0,0.5],[1,0.5]];portConstraint=eastwest;top=0;left=0;right=0;bottom=0;labelBackgroundColor=none;strokeColor=#AF45ED;fontColor=#095C86;sketch=1;curveFitting=1;jiggle=2;" vertex="1" parent="sSJZ3aIpv_1IfQXylRO--14">
          <mxGeometry y="210" width="275" height="30" as="geometry" />
        </mxCell>
        <mxCell id="sSJZ3aIpv_1IfQXylRO--114" value="" style="shape=partialRectangle;connectable=0;fillColor=none;top=0;left=0;bottom=0;right=0;editable=1;overflow=hidden;whiteSpace=wrap;html=1;labelBackgroundColor=none;strokeColor=#AF45ED;fontColor=#095C86;sketch=1;curveFitting=1;jiggle=2;" vertex="1" parent="sSJZ3aIpv_1IfQXylRO--113">
          <mxGeometry width="30" height="30" as="geometry">
            <mxRectangle width="30" height="30" as="alternateBounds" />
          </mxGeometry>
        </mxCell>
        <mxCell id="sSJZ3aIpv_1IfQXylRO--115" value="administered_by varchar(100)" style="shape=partialRectangle;connectable=0;fillColor=none;top=0;left=0;bottom=0;right=0;align=left;spacingLeft=6;overflow=hidden;whiteSpace=wrap;html=1;labelBackgroundColor=none;strokeColor=#AF45ED;fontColor=#095C86;sketch=1;curveFitting=1;jiggle=2;" vertex="1" parent="sSJZ3aIpv_1IfQXylRO--113">
          <mxGeometry x="30" width="245" height="30" as="geometry">
            <mxRectangle width="245" height="30" as="alternateBounds" />
          </mxGeometry>
        </mxCell>
        <mxCell id="sSJZ3aIpv_1IfQXylRO--116" value="" style="shape=tableRow;horizontal=0;startSize=0;swimlaneHead=0;swimlaneBody=0;fillColor=none;collapsible=0;dropTarget=0;points=[[0,0.5],[1,0.5]];portConstraint=eastwest;top=0;left=0;right=0;bottom=0;labelBackgroundColor=none;strokeColor=#AF45ED;fontColor=#095C86;sketch=1;curveFitting=1;jiggle=2;" vertex="1" parent="sSJZ3aIpv_1IfQXylRO--14">
          <mxGeometry y="240" width="275" height="30" as="geometry" />
        </mxCell>
        <mxCell id="sSJZ3aIpv_1IfQXylRO--117" value="" style="shape=partialRectangle;connectable=0;fillColor=none;top=0;left=0;bottom=0;right=0;editable=1;overflow=hidden;whiteSpace=wrap;html=1;labelBackgroundColor=none;strokeColor=#AF45ED;fontColor=#095C86;sketch=1;curveFitting=1;jiggle=2;" vertex="1" parent="sSJZ3aIpv_1IfQXylRO--116">
          <mxGeometry width="30" height="30" as="geometry">
            <mxRectangle width="30" height="30" as="alternateBounds" />
          </mxGeometry>
        </mxCell>
        <mxCell id="sSJZ3aIpv_1IfQXylRO--118" value="location varchar(200)" style="shape=partialRectangle;connectable=0;fillColor=none;top=0;left=0;bottom=0;right=0;align=left;spacingLeft=6;overflow=hidden;whiteSpace=wrap;html=1;labelBackgroundColor=none;strokeColor=#AF45ED;fontColor=#095C86;sketch=1;curveFitting=1;jiggle=2;" vertex="1" parent="sSJZ3aIpv_1IfQXylRO--116">
          <mxGeometry x="30" width="245" height="30" as="geometry">
            <mxRectangle width="245" height="30" as="alternateBounds" />
          </mxGeometry>
        </mxCell>
        <mxCell id="sSJZ3aIpv_1IfQXylRO--119" value="" style="shape=tableRow;horizontal=0;startSize=0;swimlaneHead=0;swimlaneBody=0;fillColor=none;collapsible=0;dropTarget=0;points=[[0,0.5],[1,0.5]];portConstraint=eastwest;top=0;left=0;right=0;bottom=0;labelBackgroundColor=none;strokeColor=#AF45ED;fontColor=#095C86;sketch=1;curveFitting=1;jiggle=2;" vertex="1" parent="sSJZ3aIpv_1IfQXylRO--14">
          <mxGeometry y="270" width="275" height="30" as="geometry" />
        </mxCell>
        <mxCell id="sSJZ3aIpv_1IfQXylRO--120" value="" style="shape=partialRectangle;connectable=0;fillColor=none;top=0;left=0;bottom=0;right=0;editable=1;overflow=hidden;whiteSpace=wrap;html=1;labelBackgroundColor=none;strokeColor=#AF45ED;fontColor=#095C86;sketch=1;curveFitting=1;jiggle=2;" vertex="1" parent="sSJZ3aIpv_1IfQXylRO--119">
          <mxGeometry width="30" height="30" as="geometry">
            <mxRectangle width="30" height="30" as="alternateBounds" />
          </mxGeometry>
        </mxCell>
        <mxCell id="sSJZ3aIpv_1IfQXylRO--121" value="next_dose_due date" style="shape=partialRectangle;connectable=0;fillColor=none;top=0;left=0;bottom=0;right=0;align=left;spacingLeft=6;overflow=hidden;whiteSpace=wrap;html=1;labelBackgroundColor=none;strokeColor=#AF45ED;fontColor=#095C86;sketch=1;curveFitting=1;jiggle=2;" vertex="1" parent="sSJZ3aIpv_1IfQXylRO--119">
          <mxGeometry x="30" width="245" height="30" as="geometry">
            <mxRectangle width="245" height="30" as="alternateBounds" />
          </mxGeometry>
        </mxCell>
        <mxCell id="sSJZ3aIpv_1IfQXylRO--122" value="" style="shape=tableRow;horizontal=0;startSize=0;swimlaneHead=0;swimlaneBody=0;fillColor=none;collapsible=0;dropTarget=0;points=[[0,0.5],[1,0.5]];portConstraint=eastwest;top=0;left=0;right=0;bottom=0;labelBackgroundColor=none;strokeColor=#AF45ED;fontColor=#095C86;sketch=1;curveFitting=1;jiggle=2;" vertex="1" parent="sSJZ3aIpv_1IfQXylRO--14">
          <mxGeometry y="300" width="275" height="30" as="geometry" />
        </mxCell>
        <mxCell id="sSJZ3aIpv_1IfQXylRO--123" value="" style="shape=partialRectangle;connectable=0;fillColor=none;top=0;left=0;bottom=0;right=0;editable=1;overflow=hidden;whiteSpace=wrap;html=1;labelBackgroundColor=none;strokeColor=#AF45ED;fontColor=#095C86;sketch=1;curveFitting=1;jiggle=2;" vertex="1" parent="sSJZ3aIpv_1IfQXylRO--122">
          <mxGeometry width="30" height="30" as="geometry">
            <mxRectangle width="30" height="30" as="alternateBounds" />
          </mxGeometry>
        </mxCell>
        <mxCell id="sSJZ3aIpv_1IfQXylRO--124" value="side_effects_reported text" style="shape=partialRectangle;connectable=0;fillColor=none;top=0;left=0;bottom=0;right=0;align=left;spacingLeft=6;overflow=hidden;whiteSpace=wrap;html=1;labelBackgroundColor=none;strokeColor=#AF45ED;fontColor=#095C86;sketch=1;curveFitting=1;jiggle=2;" vertex="1" parent="sSJZ3aIpv_1IfQXylRO--122">
          <mxGeometry x="30" width="245" height="30" as="geometry">
            <mxRectangle width="245" height="30" as="alternateBounds" />
          </mxGeometry>
        </mxCell>
        <mxCell id="sSJZ3aIpv_1IfQXylRO--27" value="vaccinations" style="shape=table;startSize=30;container=1;collapsible=1;childLayout=tableLayout;fixedRows=1;rowLines=0;fontStyle=1;align=center;resizeLast=1;html=1;labelBackgroundColor=none;fillColor=#F694C1;strokeColor=#AF45ED;fontColor=#095C86;sketch=1;curveFitting=1;jiggle=2;" vertex="1" parent="1">
          <mxGeometry x="500" y="770" width="220" height="170" as="geometry" />
        </mxCell>
        <mxCell id="sSJZ3aIpv_1IfQXylRO--28" value="" style="shape=tableRow;horizontal=0;startSize=0;swimlaneHead=0;swimlaneBody=0;fillColor=none;collapsible=0;dropTarget=0;points=[[0,0.5],[1,0.5]];portConstraint=eastwest;top=0;left=0;right=0;bottom=1;labelBackgroundColor=none;strokeColor=#AF45ED;fontColor=#095C86;sketch=1;curveFitting=1;jiggle=2;" vertex="1" parent="sSJZ3aIpv_1IfQXylRO--27">
          <mxGeometry y="30" width="220" height="30" as="geometry" />
        </mxCell>
        <mxCell id="sSJZ3aIpv_1IfQXylRO--29" value="PK" style="shape=partialRectangle;connectable=0;fillColor=none;top=0;left=0;bottom=0;right=0;fontStyle=1;overflow=hidden;whiteSpace=wrap;html=1;labelBackgroundColor=none;strokeColor=#AF45ED;fontColor=#095C86;sketch=1;curveFitting=1;jiggle=2;" vertex="1" parent="sSJZ3aIpv_1IfQXylRO--28">
          <mxGeometry width="30" height="30" as="geometry">
            <mxRectangle width="30" height="30" as="alternateBounds" />
          </mxGeometry>
        </mxCell>
        <mxCell id="sSJZ3aIpv_1IfQXylRO--30" value="vaccination id int NOT NULL&amp;nbsp;" style="shape=partialRectangle;connectable=0;fillColor=none;top=0;left=0;bottom=0;right=0;align=left;spacingLeft=6;fontStyle=5;overflow=hidden;whiteSpace=wrap;html=1;labelBackgroundColor=none;strokeColor=#AF45ED;fontColor=#095C86;sketch=1;curveFitting=1;jiggle=2;" vertex="1" parent="sSJZ3aIpv_1IfQXylRO--28">
          <mxGeometry x="30" width="190" height="30" as="geometry">
            <mxRectangle width="190" height="30" as="alternateBounds" />
          </mxGeometry>
        </mxCell>
        <mxCell id="sSJZ3aIpv_1IfQXylRO--31" value="" style="shape=tableRow;horizontal=0;startSize=0;swimlaneHead=0;swimlaneBody=0;fillColor=none;collapsible=0;dropTarget=0;points=[[0,0.5],[1,0.5]];portConstraint=eastwest;top=0;left=0;right=0;bottom=0;labelBackgroundColor=none;strokeColor=#AF45ED;fontColor=#095C86;sketch=1;curveFitting=1;jiggle=2;" vertex="1" parent="sSJZ3aIpv_1IfQXylRO--27">
          <mxGeometry y="60" width="220" height="30" as="geometry" />
        </mxCell>
        <mxCell id="sSJZ3aIpv_1IfQXylRO--32" value="" style="shape=partialRectangle;connectable=0;fillColor=none;top=0;left=0;bottom=0;right=0;editable=1;overflow=hidden;whiteSpace=wrap;html=1;labelBackgroundColor=none;strokeColor=#AF45ED;fontColor=#095C86;sketch=1;curveFitting=1;jiggle=2;" vertex="1" parent="sSJZ3aIpv_1IfQXylRO--31">
          <mxGeometry width="30" height="30" as="geometry">
            <mxRectangle width="30" height="30" as="alternateBounds" />
          </mxGeometry>
        </mxCell>
        <mxCell id="sSJZ3aIpv_1IfQXylRO--33" value="name varchar(100)" style="shape=partialRectangle;connectable=0;fillColor=none;top=0;left=0;bottom=0;right=0;align=left;spacingLeft=6;overflow=hidden;whiteSpace=wrap;html=1;labelBackgroundColor=none;strokeColor=#AF45ED;fontColor=#095C86;sketch=1;curveFitting=1;jiggle=2;" vertex="1" parent="sSJZ3aIpv_1IfQXylRO--31">
          <mxGeometry x="30" width="190" height="30" as="geometry">
            <mxRectangle width="190" height="30" as="alternateBounds" />
          </mxGeometry>
        </mxCell>
        <mxCell id="sSJZ3aIpv_1IfQXylRO--34" value="" style="shape=tableRow;horizontal=0;startSize=0;swimlaneHead=0;swimlaneBody=0;fillColor=none;collapsible=0;dropTarget=0;points=[[0,0.5],[1,0.5]];portConstraint=eastwest;top=0;left=0;right=0;bottom=0;labelBackgroundColor=none;strokeColor=#AF45ED;fontColor=#095C86;sketch=1;curveFitting=1;jiggle=2;" vertex="1" parent="sSJZ3aIpv_1IfQXylRO--27">
          <mxGeometry y="90" width="220" height="30" as="geometry" />
        </mxCell>
        <mxCell id="sSJZ3aIpv_1IfQXylRO--35" value="" style="shape=partialRectangle;connectable=0;fillColor=none;top=0;left=0;bottom=0;right=0;editable=1;overflow=hidden;whiteSpace=wrap;html=1;labelBackgroundColor=none;strokeColor=#AF45ED;fontColor=#095C86;sketch=1;curveFitting=1;jiggle=2;" vertex="1" parent="sSJZ3aIpv_1IfQXylRO--34">
          <mxGeometry width="30" height="30" as="geometry">
            <mxRectangle width="30" height="30" as="alternateBounds" />
          </mxGeometry>
        </mxCell>
        <mxCell id="sSJZ3aIpv_1IfQXylRO--36" value="manufacturer varchar(100)" style="shape=partialRectangle;connectable=0;fillColor=none;top=0;left=0;bottom=0;right=0;align=left;spacingLeft=6;overflow=hidden;whiteSpace=wrap;html=1;labelBackgroundColor=none;strokeColor=#AF45ED;fontColor=#095C86;sketch=1;curveFitting=1;jiggle=2;" vertex="1" parent="sSJZ3aIpv_1IfQXylRO--34">
          <mxGeometry x="30" width="190" height="30" as="geometry">
            <mxRectangle width="190" height="30" as="alternateBounds" />
          </mxGeometry>
        </mxCell>
        <mxCell id="sSJZ3aIpv_1IfQXylRO--37" value="" style="shape=tableRow;horizontal=0;startSize=0;swimlaneHead=0;swimlaneBody=0;fillColor=none;collapsible=0;dropTarget=0;points=[[0,0.5],[1,0.5]];portConstraint=eastwest;top=0;left=0;right=0;bottom=0;labelBackgroundColor=none;strokeColor=#AF45ED;fontColor=#095C86;sketch=1;curveFitting=1;jiggle=2;" vertex="1" parent="sSJZ3aIpv_1IfQXylRO--27">
          <mxGeometry y="120" width="220" height="20" as="geometry" />
        </mxCell>
        <mxCell id="sSJZ3aIpv_1IfQXylRO--38" value="" style="shape=partialRectangle;connectable=0;fillColor=none;top=0;left=0;bottom=0;right=0;editable=1;overflow=hidden;whiteSpace=wrap;html=1;labelBackgroundColor=none;strokeColor=#AF45ED;fontColor=#095C86;sketch=1;curveFitting=1;jiggle=2;" vertex="1" parent="sSJZ3aIpv_1IfQXylRO--37">
          <mxGeometry width="30" height="20" as="geometry">
            <mxRectangle width="30" height="20" as="alternateBounds" />
          </mxGeometry>
        </mxCell>
        <mxCell id="sSJZ3aIpv_1IfQXylRO--39" value="required_doses int" style="shape=partialRectangle;connectable=0;fillColor=none;top=0;left=0;bottom=0;right=0;align=left;spacingLeft=6;overflow=hidden;whiteSpace=wrap;html=1;labelBackgroundColor=none;strokeColor=#AF45ED;fontColor=#095C86;sketch=1;curveFitting=1;jiggle=2;" vertex="1" parent="sSJZ3aIpv_1IfQXylRO--37">
          <mxGeometry x="30" width="190" height="20" as="geometry">
            <mxRectangle width="190" height="20" as="alternateBounds" />
          </mxGeometry>
        </mxCell>
        <mxCell id="sSJZ3aIpv_1IfQXylRO--107" value="" style="shape=tableRow;horizontal=0;startSize=0;swimlaneHead=0;swimlaneBody=0;fillColor=none;collapsible=0;dropTarget=0;points=[[0,0.5],[1,0.5]];portConstraint=eastwest;top=0;left=0;right=0;bottom=0;labelBackgroundColor=none;strokeColor=#AF45ED;fontColor=#095C86;sketch=1;curveFitting=1;jiggle=2;" vertex="1" parent="sSJZ3aIpv_1IfQXylRO--27">
          <mxGeometry y="140" width="220" height="30" as="geometry" />
        </mxCell>
        <mxCell id="sSJZ3aIpv_1IfQXylRO--108" value="" style="shape=partialRectangle;connectable=0;fillColor=none;top=0;left=0;bottom=0;right=0;editable=1;overflow=hidden;whiteSpace=wrap;html=1;labelBackgroundColor=none;strokeColor=#AF45ED;fontColor=#095C86;sketch=1;curveFitting=1;jiggle=2;" vertex="1" parent="sSJZ3aIpv_1IfQXylRO--107">
          <mxGeometry width="30" height="30" as="geometry">
            <mxRectangle width="30" height="30" as="alternateBounds" />
          </mxGeometry>
        </mxCell>
        <mxCell id="sSJZ3aIpv_1IfQXylRO--109" value="validity_period int" style="shape=partialRectangle;connectable=0;fillColor=none;top=0;left=0;bottom=0;right=0;align=left;spacingLeft=6;overflow=hidden;whiteSpace=wrap;html=1;labelBackgroundColor=none;strokeColor=#AF45ED;fontColor=#095C86;sketch=1;curveFitting=1;jiggle=2;" vertex="1" parent="sSJZ3aIpv_1IfQXylRO--107">
          <mxGeometry x="30" width="190" height="30" as="geometry">
            <mxRectangle width="190" height="30" as="alternateBounds" />
          </mxGeometry>
        </mxCell>
        <mxCell id="sSJZ3aIpv_1IfQXylRO--135" value="" style="edgeStyle=entityRelationEdgeStyle;fontSize=12;html=1;endArrow=ERmandOne;startArrow=ERmandOne;rounded=0;entryX=1;entryY=0.5;entryDx=0;entryDy=0;exitX=0;exitY=0.5;exitDx=0;exitDy=0;labelBackgroundColor=none;strokeColor=#60E696;fontColor=default;sketch=1;curveFitting=1;jiggle=2;" edge="1" parent="1" source="sSJZ3aIpv_1IfQXylRO--8" target="sSJZ3aIpv_1IfQXylRO--46">
          <mxGeometry width="100" height="100" relative="1" as="geometry">
            <mxPoint x="220" y="330" as="sourcePoint" />
            <mxPoint x="320" y="230" as="targetPoint" />
          </mxGeometry>
        </mxCell>
        <mxCell id="sSJZ3aIpv_1IfQXylRO--136" value="" style="edgeStyle=orthogonalEdgeStyle;fontSize=12;html=1;endArrow=ERmandOne;startArrow=ERmandOne;rounded=0;entryX=1;entryY=0.5;entryDx=0;entryDy=0;exitX=1;exitY=0.5;exitDx=0;exitDy=0;labelBackgroundColor=none;strokeColor=#60E696;fontColor=default;sketch=1;curveFitting=1;jiggle=2;" edge="1" parent="1" source="sSJZ3aIpv_1IfQXylRO--11" target="C-vyLk0tnHw3VtMMgP7b-9">
          <mxGeometry width="100" height="100" relative="1" as="geometry">
            <mxPoint x="220" y="500" as="sourcePoint" />
            <mxPoint x="320" y="400" as="targetPoint" />
          </mxGeometry>
        </mxCell>
        <mxCell id="sSJZ3aIpv_1IfQXylRO--137" value="" style="edgeStyle=entityRelationEdgeStyle;fontSize=12;html=1;endArrow=ERmandOne;startArrow=ERmandOne;rounded=0;entryX=1;entryY=0.5;entryDx=0;entryDy=0;exitX=0;exitY=0.5;exitDx=0;exitDy=0;labelBackgroundColor=none;strokeColor=#60E696;fontColor=default;sketch=1;curveFitting=1;jiggle=2;" edge="1" parent="1" source="sSJZ3aIpv_1IfQXylRO--125" target="sSJZ3aIpv_1IfQXylRO--86">
          <mxGeometry width="100" height="100" relative="1" as="geometry">
            <mxPoint x="390" y="860" as="sourcePoint" />
            <mxPoint x="320" y="760" as="targetPoint" />
          </mxGeometry>
        </mxCell>
        <mxCell id="sSJZ3aIpv_1IfQXylRO--139" value="" style="edgeStyle=orthogonalEdgeStyle;fontSize=12;html=1;endArrow=ERoneToMany;rounded=0;entryX=0;entryY=0.5;entryDx=0;entryDy=0;exitX=0;exitY=0.5;exitDx=0;exitDy=0;labelBackgroundColor=none;strokeColor=#60E696;fontColor=default;sketch=1;curveFitting=1;jiggle=2;" edge="1" parent="1" source="sSJZ3aIpv_1IfQXylRO--24" target="sSJZ3aIpv_1IfQXylRO--74">
          <mxGeometry width="100" height="100" relative="1" as="geometry">
            <mxPoint x="220" y="610" as="sourcePoint" />
            <mxPoint x="340" y="430" as="targetPoint" />
          </mxGeometry>
        </mxCell>
        <mxCell id="sSJZ3aIpv_1IfQXylRO--144" value="" style="edgeStyle=entityRelationEdgeStyle;fontSize=12;html=1;endArrow=ERoneToMany;rounded=0;entryX=0;entryY=0.5;entryDx=0;entryDy=0;exitX=1;exitY=0.5;exitDx=0;exitDy=0;labelBackgroundColor=none;strokeColor=#60E696;fontColor=default;sketch=1;curveFitting=1;jiggle=2;" edge="1" parent="1" source="sSJZ3aIpv_1IfQXylRO--21" target="sSJZ3aIpv_1IfQXylRO--31">
          <mxGeometry width="100" height="100" relative="1" as="geometry">
            <mxPoint x="220" y="620" as="sourcePoint" />
            <mxPoint x="320" y="520" as="targetPoint" />
          </mxGeometry>
        </mxCell>
      </root>
    </mxGraphModel>
  </diagram>
</mxfile>
